<svg width="85" height="97" viewBox="0 0 85 97" fill="none" xmlns="http://www.w3.org/2000/svg">
<circle cx="42.5" cy="19.7561" r="19.7561" fill="#A8DCED"/>
<mask id="mask0_187_433" style="mask-type:luminance" maskUnits="userSpaceOnUse" x="22" y="0" width="41" height="40">
<circle cx="42.5" cy="19.7561" r="19.7561" fill="white"/>
</mask>
<g mask="url(#mask0_187_433)">
<path fill-rule="evenodd" clip-rule="evenodd" d="M35.1522 11.9068C35.1522 11.9068 33.4247 21.8274 34.8763 23.406C34.8763 23.406 40.4981 23.876 40.4981 23.257C40.4981 22.6381 40.8905 19.2428 40.8905 19.2428L37.937 10.7457L35.1522 11.9068Z" fill="#252E33"/>
<path fill-rule="evenodd" clip-rule="evenodd" d="M48.6129 6.56327C50.701 8.79969 52.2262 22.0053 50.939 23.1656C50.939 23.1656 44.4431 23.895 44.4431 23.2761C44.4431 22.6572 44.7894 19.2428 44.7894 19.2428L47.742 10.7457C47.742 10.7457 46.5248 4.32674 48.6129 6.56327Z" fill="#252E33"/>
<path fill-rule="evenodd" clip-rule="evenodd" d="M45.8485 24.3359L45.6295 20.511H40.137L39.9166 24.3607L37.3525 25.1154L37.4479 34.0375H48.4246L48.4833 25.1154L45.8485 24.3359V24.3359Z" fill="#AB7862"/>
<path d="M53.9458 27.0645C52.1724 25.9685 46.8343 24.4968 46.8343 24.4968C46.8343 24.4968 46.0449 28.3104 43.0785 28.3104C40.1121 28.3104 39.0012 24.4968 39.0012 24.4968C39.0012 24.4968 33.1218 25.9685 31.3495 27.0645C30.1847 27.7844 27.7525 29.9004 27.54 34.7771C27.4988 35.7269 27.4016 38.3346 27.2803 40.0324H58.4451C58.2808 38.3346 58.1543 35.7269 58.1132 34.7771C57.9003 29.9004 55.1102 27.7844 53.9458 27.0645Z" fill="#252E33"/>
<path d="M48.1551 14.1946H48.7855C49.153 14.1946 49.4509 14.4923 49.4509 14.8594V15.9509C49.4509 16.6081 48.9177 17.1409 48.2598 17.1409H48.1549V14.1951L48.1551 14.1946Z" fill="#AB7862"/>
<path d="M37.6113 17.1409H37.5064C36.8486 17.1409 36.3153 16.6081 36.3153 15.9509V14.8593C36.3153 14.4921 36.6132 14.1945 36.9807 14.1945H37.6111V17.1403L37.6113 17.1409Z" fill="#AB7862"/>
<path fill-rule="evenodd" clip-rule="evenodd" d="M42.7871 8.05161C39.8202 8.10633 37.4985 10.6532 37.4985 13.6219V16.2361C37.4985 18.2524 38.9224 20.5929 40.0049 21.9098L40.708 22.7654C41.0975 23.2395 41.6791 23.5143 42.2931 23.5144H43.4834C44.0975 23.5143 44.6792 23.2394 45.0687 22.7652L45.7718 21.9097C46.8546 20.5922 48.2785 18.251 48.2785 16.2338V13.4427C48.2794 11.996 47.6981 10.6097 46.6653 9.59577C45.6324 8.58181 44.2349 8.02535 42.7871 8.05161Z" fill="#B8866E"/>
<path fill-rule="evenodd" clip-rule="evenodd" d="M36.9445 12.5691L37.7713 11.8877C37.9652 12.9324 47.9585 12.8356 48.0318 11.8248C48.7749 12.1943 48.893 12.1863 48.893 12.1863C49.661 11.746 50.0319 9.659 49.3239 7.85292C48.2221 5.04337 44.6247 2.99145 42.826 4.69626C40.7115 2.86513 36.9877 5.26446 35.539 10.3596C35.1027 11.8943 35.1521 11.9075 35.1521 11.9075L36.9445 12.5691Z" fill="#252E33"/>
<path d="M39.0094 24.5179C39.0238 25.3212 39.0897 26.1226 39.2065 26.9175C39.3132 27.6918 39.5075 28.4514 39.7859 29.1819C39.925 29.5292 40.0992 29.8613 40.3059 30.1732C40.3602 30.2466 40.4076 30.3253 40.4664 30.3933L40.6389 30.5999L40.8268 30.7875C40.8898 30.8487 40.9621 30.8991 41.0283 30.9553C41.304 31.1662 41.6145 31.3276 41.9457 31.432C42.2883 31.5299 42.6427 31.5806 42.9991 31.5828C43.0893 31.5828 43.1796 31.5755 43.2698 31.5723L43.4053 31.567C43.4501 31.5641 43.4932 31.5545 43.5373 31.5488C43.6248 31.5349 43.7135 31.5248 43.8003 31.5089L44.0537 31.4425C44.3852 31.3448 44.696 31.1874 44.9709 30.9781C45.5243 30.5571 45.9096 29.9042 46.1826 29.1975C46.4438 28.4614 46.6193 27.6978 46.7056 26.9216C46.8021 26.124 46.8476 25.3211 46.842 24.5178C47.0426 25.3118 47.1527 26.1258 47.1704 26.9444C47.1978 27.7814 47.1037 28.6179 46.891 29.4279C46.7749 29.8472 46.6083 30.2509 46.3948 30.6301C46.1746 31.0271 45.8843 31.3811 45.5378 31.6747C45.1805 31.9698 44.7703 32.1941 44.329 32.3359L43.9975 32.4264C43.8862 32.4484 43.7743 32.4635 43.6626 32.4816C43.6067 32.4894 43.5506 32.5009 43.4947 32.5052L43.3276 32.5145C43.2163 32.5192 43.1049 32.529 42.9934 32.5286C42.5416 32.5231 42.0929 32.4532 41.6608 32.321C41.2235 32.1727 40.8173 31.9453 40.4625 31.6501C40.3785 31.5727 40.2886 31.5003 40.2106 31.418L39.9818 31.1664C39.9131 31.0776 39.8461 30.9882 39.7801 30.8974C39.7141 30.8066 39.6613 30.7098 39.6017 30.6164C39.3839 30.2412 39.2105 29.8419 39.0851 29.4266C38.8545 28.6222 38.74 27.7891 38.7452 26.9525C38.7412 26.1336 38.8299 25.3169 39.0094 24.5179Z" fill="#EA4224"/>
<ellipse cx="42.9462" cy="33.5115" rx="1.13578" ry="1.1363" fill="#EA4224"/>
</g>
<path d="M5.9728 65.7187C5.41902 65.7187 4.86523 65.6585 4.31144 65.5381C3.76969 65.4178 3.25804 65.2492 2.77648 65.0325C2.30696 64.8158 1.90366 64.557 1.56657 64.256L2.32502 62.5043C2.89085 62.9257 3.46872 63.2447 4.05862 63.4614C4.66057 63.6661 5.28659 63.7684 5.93669 63.7684C6.71922 63.7684 7.32718 63.5758 7.76058 63.1906C8.20602 62.7933 8.42874 62.2636 8.42874 61.6014C8.42874 60.9273 8.21806 60.3855 7.7967 59.9762C7.37533 59.5548 6.79747 59.3441 6.0631 59.3441C5.54542 59.3441 5.06989 59.4465 4.63649 59.6511C4.21513 59.8438 3.8359 60.1447 3.49881 60.554H1.96386V52.807H9.8734V54.7212H4.16697V58.7663H3.60716C3.92017 58.3449 4.33552 58.0199 4.85319 57.7911C5.3829 57.5624 5.9728 57.448 6.6229 57.448C7.44155 57.448 8.15184 57.6166 8.75379 57.9537C9.35573 58.2907 9.82525 58.7663 10.1623 59.3803C10.4994 59.9822 10.668 60.6925 10.668 61.5111C10.668 62.3418 10.4753 63.0762 10.0901 63.7143C9.7169 64.3403 9.17515 64.8339 8.46485 65.195C7.7666 65.5442 6.93592 65.7187 5.9728 65.7187ZM16.9527 65.5381V52.807H18.9933L23.6704 63.335H23.1106L27.7877 52.807H29.8102V65.5381H27.6974V56.0936H28.3475L24.0677 65.5381H22.6772L18.3974 56.0936H19.0655V65.5381H16.9527ZM32.1057 65.5381V56.4187H34.363V65.5381H32.1057ZM31.9793 54.7032V52.5H34.4894V54.7032H31.9793ZM36.4531 65.5381V52.2472H38.7104V65.5381H36.4531ZM40.8005 65.5381V52.2472H43.0578V65.5381H40.8005ZM45.1479 65.5381V56.4187H47.4052V65.5381H45.1479ZM45.0215 54.7032V52.5H47.5316V54.7032H45.0215ZM53.6126 65.7187C52.6736 65.7187 51.861 65.5261 51.1748 65.1409C50.4886 64.7556 49.9528 64.2079 49.5676 63.4976C49.1944 62.7873 49.0078 61.9445 49.0078 60.9694C49.0078 59.9942 49.1944 59.1575 49.5676 58.4593C49.9528 57.749 50.4886 57.2012 51.1748 56.816C51.861 56.4307 52.6736 56.2381 53.6126 56.2381C54.5517 56.2381 55.3643 56.4307 56.0505 56.816C56.7488 57.2012 57.2845 57.749 57.6577 58.4593C58.0429 59.1575 58.2356 59.9942 58.2356 60.9694C58.2356 61.9445 58.0429 62.7873 57.6577 63.4976C57.2845 64.2079 56.7488 64.7556 56.0505 65.1409C55.3643 65.5261 54.5517 65.7187 53.6126 65.7187ZM53.6126 63.9851C54.3229 63.9851 54.8888 63.7383 55.3101 63.2447C55.7315 62.7391 55.9422 61.9807 55.9422 60.9694C55.9422 59.9581 55.7315 59.2057 55.3101 58.7121C54.8888 58.2185 54.3229 57.9717 53.6126 57.9717C52.9023 57.9717 52.3365 58.2185 51.9152 58.7121C51.4938 59.2057 51.2831 59.9581 51.2831 60.9694C51.2831 61.9807 51.4938 62.7391 51.9152 63.2447C52.3365 63.7383 52.9023 63.9851 53.6126 63.9851ZM59.821 65.5381V58.694C59.821 58.3208 59.809 57.9416 59.7849 57.5564C59.7608 57.1711 59.7247 56.7919 59.6766 56.4187H61.8616L62.0422 58.2245H61.8255C62.1144 57.5865 62.5418 57.0989 63.1077 56.7618C63.6735 56.4127 64.3296 56.2381 65.076 56.2381C66.1475 56.2381 66.9541 56.5391 67.4958 57.141C68.0376 57.743 68.3085 58.682 68.3085 59.9581V65.5381H66.0512V60.0665C66.0512 59.3321 65.9067 58.8084 65.6178 58.4954C65.3409 58.1704 64.9195 58.0078 64.3537 58.0078C63.6554 58.0078 63.1016 58.2245 62.6923 58.6579C62.283 59.0913 62.0783 59.6692 62.0783 60.3915V65.5381H59.821ZM78.3119 64.8339V61.15H74.6822V59.5608H78.3119V55.9672H79.9552V59.5608H83.5669V61.15H79.9552V64.8339H78.3119Z" fill="#113B5E"/>
<path d="M14.5475 90.5544V80.6524H15.5587L19.5336 89.6274H19.1263L23.1011 80.6524H24.1124V90.5544H23.0449V82.1553H23.4663L19.7162 90.5544H18.9437L15.1795 82.1553H15.6009V90.5544H14.5475ZM29.3147 90.6808C28.2098 90.6808 27.339 90.3624 26.7023 89.7257C26.0656 89.0796 25.7472 88.1854 25.7472 87.043C25.7472 86.3033 25.8877 85.6619 26.1686 85.1188C26.4495 84.5664 26.8428 84.1403 27.3484 83.8407C27.854 83.5317 28.4346 83.3772 29.09 83.3772C29.7361 83.3772 30.2792 83.513 30.7193 83.7845C31.1594 84.0561 31.4965 84.4446 31.7306 84.9503C31.9646 85.4466 32.0817 86.0365 32.0817 86.72V87.1414H26.618V86.425H31.3373L31.0985 86.6076C31.0985 85.8585 30.93 85.2733 30.5929 84.852C30.2558 84.4306 29.7548 84.2199 29.09 84.2199C28.3878 84.2199 27.84 84.4681 27.4467 84.9643C27.0534 85.4512 26.8568 86.1114 26.8568 86.9447V87.0711C26.8568 87.9513 27.0722 88.6208 27.5029 89.0796C27.943 89.5291 28.5563 89.7538 29.3428 89.7538C29.7642 89.7538 30.1575 89.6929 30.5227 89.5712C30.8972 89.4401 31.253 89.2294 31.5901 88.9392L31.9834 89.7398C31.6744 90.0394 31.2811 90.2735 30.8036 90.442C30.3354 90.6012 29.8391 90.6808 29.3147 90.6808ZM33.5416 90.5544V85.1329C33.5416 84.8707 33.5276 84.6038 33.4995 84.3323C33.4808 84.0514 33.4574 83.7752 33.4293 83.5036H34.5248L34.6653 85.0486H34.4967C34.684 84.5149 34.9789 84.1029 35.3816 83.8126C35.7936 83.5223 36.2898 83.3772 36.8704 83.3772C37.4603 83.3772 37.9378 83.5177 38.303 83.7986C38.6776 84.0795 38.9304 84.5149 39.0615 85.1048H38.8508C39.0287 84.5711 39.3424 84.1497 39.7918 83.8407C40.2413 83.5317 40.7656 83.3772 41.3649 83.3772C42.1421 83.3772 42.7273 83.6019 43.1206 84.0514C43.5138 84.4915 43.7105 85.1891 43.7105 86.1441V90.5544H42.5728V86.2144C42.5728 85.5496 42.4558 85.0673 42.2217 84.7677C41.9876 84.4587 41.613 84.3042 41.098 84.3042C40.5081 84.3042 40.04 84.5102 39.6935 84.9222C39.3564 85.3248 39.1879 85.8679 39.1879 86.5515V90.5544H38.0502V86.2144C38.0502 85.5496 37.9332 85.0673 37.6991 84.7677C37.465 84.4587 37.0904 84.3042 36.5754 84.3042C35.9855 84.3042 35.522 84.5102 35.1849 84.9222C34.8479 85.3248 34.6793 85.8679 34.6793 86.5515V90.5544H33.5416ZM49.131 90.6808C48.4943 90.6808 47.9465 90.5216 47.4877 90.2032C47.0289 89.8755 46.7199 89.4308 46.5607 88.8689H46.7152V90.5544H45.5916V80.217H46.7292V85.1469H46.5607C46.7199 84.6038 47.0289 84.1731 47.4877 83.8547C47.9465 83.5364 48.4943 83.3772 49.131 83.3772C49.7677 83.3772 50.3155 83.527 50.7743 83.8267C51.2425 84.1169 51.603 84.5336 51.8558 85.0767C52.118 85.6198 52.2491 86.2705 52.2491 87.029C52.2491 87.7874 52.118 88.4382 51.8558 88.9813C51.5936 89.5244 51.2284 89.9457 50.7603 90.2454C50.3015 90.5357 49.7584 90.6808 49.131 90.6808ZM48.8922 89.7538C49.557 89.7538 50.0908 89.5244 50.4934 89.0656C50.896 88.6068 51.0974 87.9279 51.0974 87.029C51.0974 86.1301 50.896 85.4512 50.4934 84.9924C50.0908 84.5242 49.557 84.2901 48.8922 84.2901C48.2274 84.2901 47.6937 84.5242 47.2911 84.9924C46.8978 85.4512 46.7012 86.1301 46.7012 87.029C46.7012 87.9185 46.8978 88.5974 47.2911 89.0656C47.6937 89.5244 48.2274 89.7538 48.8922 89.7538ZM56.8645 90.6808C55.7596 90.6808 54.8888 90.3624 54.2521 89.7257C53.6153 89.0796 53.297 88.1854 53.297 87.043C53.297 86.3033 53.4374 85.6619 53.7183 85.1188C53.9993 84.5664 54.3925 84.1403 54.8982 83.8407C55.4038 83.5317 55.9843 83.3772 56.6398 83.3772C57.2859 83.3772 57.829 83.513 58.269 83.7845C58.7091 84.0561 59.0462 84.4446 59.2803 84.9503C59.5144 85.4466 59.6314 86.0365 59.6314 86.72V87.1414H54.1678V86.425H58.887L58.6483 86.6076C58.6483 85.8585 58.4797 85.2733 58.1426 84.852C57.8056 84.4306 57.3046 84.2199 56.6398 84.2199C55.9375 84.2199 55.3897 84.4681 54.9965 84.9643C54.6032 85.4512 54.4066 86.1114 54.4066 86.9447V87.0711C54.4066 87.9513 54.6219 88.6208 55.0527 89.0796C55.4927 89.5291 56.1061 89.7538 56.8926 89.7538C57.314 89.7538 57.7072 89.6929 58.0724 89.5712C58.447 89.4401 58.8028 89.2294 59.1399 88.9392L59.5331 89.7398C59.2241 90.0394 58.8309 90.2735 58.3533 90.442C57.8851 90.6012 57.3889 90.6808 56.8645 90.6808ZM61.0633 90.5544V85.2031C61.0633 84.9222 61.0539 84.6366 61.0352 84.3463C61.0259 84.0561 61.0071 83.7752 60.979 83.5036H62.0746L62.215 85.2171L62.0184 85.2312C62.112 84.8098 62.2759 84.4634 62.51 84.1918C62.7441 83.9203 63.0203 83.719 63.3387 83.5879C63.657 83.4474 63.9894 83.3772 64.3359 83.3772C64.4763 83.3772 64.5981 83.3819 64.7011 83.3912C64.8134 83.4006 64.9164 83.424 65.0101 83.4615L64.996 84.4727C64.8556 84.4259 64.7245 84.3978 64.6027 84.3885C64.4904 84.3697 64.3593 84.3604 64.2095 84.3604C63.7975 84.3604 63.437 84.4587 63.128 84.6553C62.8283 84.852 62.5989 85.1048 62.4398 85.4138C62.2899 85.7228 62.215 86.0505 62.215 86.397V90.5544H61.0633ZM68.1899 90.6808C67.6281 90.6808 67.1037 90.6059 66.6168 90.4561C66.1299 90.2969 65.7273 90.0768 65.4089 89.7959L65.8022 88.9953C66.1486 89.2669 66.5232 89.4682 66.9258 89.5993C67.3378 89.7304 67.7639 89.7959 68.2039 89.7959C68.7658 89.7959 69.1871 89.6976 69.468 89.501C69.7583 89.295 69.9034 89.0141 69.9034 88.6583C69.9034 88.3867 69.8098 88.1714 69.6225 88.0122C69.4446 87.8436 69.1497 87.7125 68.7377 87.6189L67.4315 87.352C66.8322 87.2209 66.3827 87.0009 66.0831 86.6919C65.7835 86.3735 65.6336 85.9709 65.6336 85.484C65.6336 85.072 65.7413 84.7115 65.9567 84.4025C66.1721 84.0842 66.4857 83.836 66.8977 83.6581C67.3097 83.4708 67.7919 83.3772 68.3444 83.3772C68.8594 83.3772 69.3323 83.4568 69.763 83.616C70.2031 83.7658 70.5682 83.9858 70.8585 84.2761L70.4512 85.0626C70.1703 84.7911 69.8473 84.5898 69.4821 84.4587C69.1263 84.3182 68.7564 84.248 68.3725 84.248C67.82 84.248 67.4034 84.3604 67.1225 84.5851C66.8509 84.8005 66.7151 85.0861 66.7151 85.4419C66.7151 85.7134 66.7994 85.9381 66.968 86.116C67.1459 86.2846 67.4174 86.411 67.7826 86.4953L69.0888 86.7621C69.7255 86.9026 70.1984 87.1226 70.5074 87.4223C70.8257 87.7125 70.9849 88.1058 70.9849 88.6021C70.9849 89.0234 70.8679 89.3933 70.6338 89.7117C70.3997 90.0207 70.072 90.2594 69.6506 90.428C69.2386 90.5965 68.7517 90.6808 68.1899 90.6808Z" fill="#557B92"/>
</svg>
