<?xml version="1.0" encoding="UTF-8"?>
<svg width="100px" height="37px" viewBox="0 0 100 37" version="1.1" xmlns="http://www.w3.org/2000/svg" xmlns:xlink="http://www.w3.org/1999/xlink">
    <title>Accredited Business</title>
    <g id="Footer" stroke="none" stroke-width="1" fill="none" fill-rule="evenodd">
        <g id="Footer-1280px" transform="translate(-934.000000, -940.000000)">
            <g id="Logo/Equal-Housing" transform="translate(80.000000, 872.000000)">
                <g id="Accredited-Business" transform="translate(856.000000, 70.000000)">
                    <path d="M96,28.4255172 C96,30.9517241 93.9482308,33 91.4177155,33 L4.58228449,33 C2.05176918,33 0,30.9517241 0,28.4255172 L0,4.57448276 C0,2.04827586 2.05176918,0 4.58228449,0 L91.4177155,0 C93.9482308,0 96,2.04827586 96,4.57448276 L96,28.4255172 Z" id="Path" stroke="#000000" stroke-width="3" fill="#000000" fill-rule="nonzero"></path>
                    <path d="M33,0 L4.49390244,0 C2.01219512,0 0,2.04686423 0,4.57133012 L0,28.4286699 C0,30.9531358 2.01219512,33 4.49390244,33 L33,33 L33,0 Z" id="Path" fill="#FFFFFF"></path>
                    <path d="M16.8204164,10 L15.4112182,12.047619 C14.7178032,13.0714286 14.9191172,14.9047619 15.8809509,15.6428571 L18.4980333,17.6428571 C18.9453979,17.9761905 18.9901343,18.3333333 18.766452,18.6904762 L19.1467119,19 L20.4664372,17.047619 C21.2716933,15.8571429 21.2045887,14.2142857 19.9967045,13.2857143 L17.379622,11.2619048 C17.0664669,11.0238095 17.0440987,10.6666667 17.2006762,10.2857143 L16.8204164,10 L16.8204164,10 Z" id="Path" fill="#000000" fill-rule="nonzero"></path>
                    <path d="M17.8538896,1 L15.6009945,4.17114094 C14.5435131,5.65100671 14.9343214,8.18791946 16.3596224,9.26845638 L20.0608074,12.0402685 C20.8194353,12.6040268 20.9113902,14.0369128 20.3596608,14.7651007 L20.681503,15 L23.2332516,11.3355705 C24.3826879,9.69127517 24.3137217,7.27181208 22.5206011,5.93288591 L18.5665402,3.02013423 C18.0148107,2.62080537 17.738946,1.91610738 18.1987205,1.25838926 L17.8538896,1 L17.8538896,1 Z" id="Path" fill="#000000" fill-rule="nonzero"></path>
                    <path d="M13,21.2794118 L15.7553398,21.2794118 L16.2466019,23 C17.7417476,23 19.2582524,23 20.7533981,23 L21.2446602,21.2794118 L24,21.2794118 L23.6368932,20 C20.1980583,20 16.7592233,20 13.3417476,20 L13,21.2794118 L13,21.2794118 Z" id="Path" fill="#000000" fill-rule="nonzero"></path>
                    <path d="M27.05,30.7352941 C27.05,30.7058824 27.05,30.6764706 27.05,30.6470588 C27.05,30.6176471 27.0454545,30.5882353 27.0409091,30.5588235 C27.0363636,30.5294118 27.0318182,30.5294118 27.0272727,30.5 C27.0227273,30.4705882 27.0136364,30.4705882 27.0045455,30.4411765 C26.9954545,30.4117647 26.9909091,30.4117647 26.9863636,30.3823529 C26.9818182,30.3823529 26.9772727,30.3529412 26.9772727,30.3529412 C26.9727273,30.3235294 26.9727273,30.3235294 26.9727273,30.2941176 C26.9727273,30.2647059 26.9727273,30.2647059 26.9727273,30.2352941 C26.9727273,30.2058824 26.9727273,30.2058824 26.9727273,30.1764706 C26.9727273,30.1470588 26.9772727,30.1470588 26.9772727,30.1470588 C26.9818182,30.1470588 26.9818182,30.1176471 26.9863636,30.1176471 C26.9909091,30.1176471 26.9954545,30.1176471 27,30.1176471 C27.0090909,30.1176471 27.0136364,30.1176471 27.0181818,30.1470588 C27.0227273,30.1764706 27.0272727,30.1764706 27.0363636,30.2058824 L27.0454545,30.1176471 C27.0409091,30.0882353 27.0318182,30.0588235 27.0272727,30.0294118 C27.0181818,30 27.0136364,30 27,30 C26.9909091,30 26.9863636,30 26.9818182,30.0294118 C26.9772727,30.0294118 26.9727273,30.0588235 26.9681818,30.0882353 C26.9636364,30.1176471 26.9590909,30.1470588 26.9590909,30.1764706 C26.9590909,30.2058824 26.9545455,30.2352941 26.9545455,30.2647059 C26.9545455,30.2941176 26.9545455,30.3235294 26.9545455,30.3529412 C26.9545455,30.3823529 26.9590909,30.4117647 26.9636364,30.4117647 C26.9681818,30.4411765 26.9727273,30.4411765 26.9772727,30.4705882 C26.9818182,30.5 26.9909091,30.5 27,30.5294118 C27.0090909,30.5588235 27.0136364,30.5588235 27.0181818,30.5882353 C27.0227273,30.6176471 27.0272727,30.6176471 27.0272727,30.6470588 C27.0318182,30.6764706 27.0318182,30.6764706 27.0318182,30.7058824 C27.0318182,30.7352941 27.0318182,30.7352941 27.0318182,30.7647059 C27.0318182,30.8235294 27.0272727,30.8529412 27.0227273,30.8823529 C27.0181818,30.9117647 27.0090909,30.9117647 27,30.9117647 C26.9909091,30.9117647 26.9863636,30.9117647 26.9772727,30.8823529 C26.9727273,30.8529412 26.9636364,30.8235294 26.9590909,30.7941176 L26.95,30.8823529 C26.9545455,30.9117647 26.9636364,30.9411765 26.9727273,30.9705882 C26.9818182,31 26.9909091,31 27,31 C27.0090909,31 27.0136364,31 27.0227273,30.9705882 C27.0272727,30.9705882 27.0318182,30.9411765 27.0363636,30.9117647 C27.0409091,30.8823529 27.0454545,30.8529412 27.0454545,30.8235294 C27.05,30.8235294 27.05,30.7941176 27.05,30.7352941 L27.05,30.7352941 Z" id="Path" fill="#000000" fill-rule="nonzero"></path>
                    <path d="M28,31 L28,30 L27.8666667,30 L27.6,30.59375 C27.6,30.59375 27.6,30.625 27.5666667,30.65625 C27.5666667,30.6875 27.5666667,30.6875 27.5333333,30.71875 C27.5333333,30.75 27.5333333,30.75 27.5,30.78125 C27.5,30.8125 27.5,30.8125 27.5,30.8125 L27.5,30.78125 C27.5,30.75 27.5,30.75 27.4666667,30.71875 C27.4666667,30.6875 27.4666667,30.6875 27.4333333,30.65625 C27.4333333,30.625 27.4333333,30.625 27.4,30.59375 L27.1333333,30 L27,30 L27,31 L27.1333333,31 L27.1333333,30.3125 L27.1333333,30.21875 L27.1333333,30.25 L27.1333333,30.28125 C27.1333333,30.28125 27.1333333,30.3125 27.1666667,30.3125 C27.1666667,30.34375 27.1666667,30.34375 27.2,30.34375 L27.5,31 L27.8,30.34375 C27.8,30.34375 27.8,30.3125 27.8333333,30.3125 C27.8333333,30.3125 27.8333333,30.28125 27.8666667,30.28125 L27.8666667,30.25 L27.8666667,30.21875 L27.8666667,30.3125 L27.8666667,31 L28,31 L28,31 Z" id="Path" fill="#000000" fill-rule="nonzero"></path>
                    <path d="M14.9725102,28.7816901 C14.8225727,27.8697183 14.447729,27.6478873 13.6980415,27.3274648 C14.2728019,27.0070423 14.622656,26.5140845 14.622656,25.8485915 C14.622656,24.5176056 13.5231144,24 12.3236145,24 L9,24 L9,31 L12.3236145,31 C13.7230311,31 15.222406,30.3838028 14.9725102,28.7816901 Z M10.4993749,25.3309859 L12.2486457,25.3309859 C13.3231978,25.3309859 13.3731769,26.834507 12.3236145,26.834507 L10.4993749,26.834507 L10.4993749,25.3309859 Z M12.4485624,29.6690141 L10.4993749,29.6690141 L10.4993749,28.0669014 L12.4485624,28.0669014 C13.8729686,28.0669014 13.7730102,29.6690141 12.4485624,29.6690141 Z" id="Shape" fill="#000000" fill-rule="nonzero"></path>
                    <path d="M20.9726344,28.7816901 C20.8233185,27.8697183 20.4500289,27.6478873 19.7034496,27.3274648 C20.275827,27.0070423 20.6242307,26.5140845 20.6242307,25.8485915 C20.6242307,24.5176056 19.5292477,24 18.3347209,24 L15,24 L15,31 L18.3098349,31 C19.7283356,31 21.2214942,30.3838028 20.9726344,28.7816901 Z M16.5180446,25.3309859 L18.2600629,25.3309859 C19.3301599,25.3309859 19.3799319,26.834507 18.3347209,26.834507 L16.5429306,26.834507 L16.5429306,25.3309859 L16.5180446,25.3309859 Z M18.4591508,29.6690141 L16.5180446,29.6690141 L16.5180446,28.0669014 L18.4591508,28.0669014 C19.8776514,28.0669014 19.7781075,29.6690141 18.4591508,29.6690141 Z" id="Shape" fill="#000000" fill-rule="nonzero"></path>
                    <path d="M26.9775391,28.7816901 C26.8281006,27.8697183 26.4545045,27.6478873 25.7073121,27.3274648 C26.2801596,27.0070423 26.6288493,26.5140845 26.6288493,25.8485915 C26.6288493,24.5176056 25.5329672,24 24.3374593,24 L21,24 L21,31 L24.3125529,31 C25.7073121,31 27.2016968,30.3838028 26.9775391,28.7816901 Z M22.5192912,25.3309859 L24.2627401,25.3309859 C25.3337159,25.3309859 25.3835287,26.834507 24.3374593,26.834507 L22.5441976,26.834507 L22.5441976,25.3309859 L22.5192912,25.3309859 Z M24.437085,29.6690141 L22.4943848,29.6690141 L22.4943848,28.0669014 L24.437085,28.0669014 C25.8567505,28.0669014 25.7820313,29.6690141 24.437085,29.6690141 Z" id="Shape" fill="#000000" fill-rule="nonzero"></path>
                    <g id="Group" transform="translate(38.000000, 11.000000)" fill="#FFFFFF">
                        <path d="M11.0706131,1.06446281 C10.7120507,0.624793388 10.1293869,0.231404959 9.59154334,0.0925619835 C9.36744186,0.0231404959 9.09852008,0 8.80718816,0 C8.4038055,0 8.04524313,0.0694214876 7.70909091,0.231404959 C7.37293869,0.39338843 7.08160677,0.601652893 6.85750529,0.856198347 C6.61099366,1.1338843 6.43171247,1.45785124 6.29725159,1.82809917 C6.1627907,2.19834711 6.09556025,2.63801653 6.09556025,3.07768595 C6.09556025,3.56363636 6.1627907,3.98016529 6.29725159,4.37355372 C6.43171247,4.74380165 6.61099366,5.09090909 6.83509514,5.34545455 C7.08160677,5.6231405 7.35052854,5.83140496 7.68668076,5.97024793 C8.02283298,6.10909091 8.38139535,6.1785124 8.78477801,6.1785124 C9.5243129,6.1785124 10.8241015,5.76198347 11.1826638,5.0214876 L10.3086681,4.21157025 C10.0621564,4.62809917 9.27780127,4.97520661 8.82959831,4.97520661 C8.60549683,4.97520661 8.4038055,4.92892562 8.22452431,4.83636364 C8.04524313,4.74380165 7.88837209,4.60495868 7.75391121,4.44297521 C7.61945032,4.28099174 7.52980973,4.07272727 7.46257928,3.84132231 C7.39534884,3.60991736 7.37293869,3.3553719 7.37293869,3.07768595 C7.37293869,2.8 7.39534884,2.54545455 7.46257928,2.31404959 C7.52980973,2.08264463 7.61945032,1.87438017 7.75391121,1.71239669 C7.86596195,1.55041322 8.02283298,1.41157025 8.20211416,1.31900826 C8.38139535,1.22644628 8.58308668,1.18016529 8.80718816,1.18016529 C9.27780127,1.18016529 9.92769556,1.50413223 10.2190275,1.92066116 L11.0706131,1.06446281 L11.0706131,1.06446281 Z" id="Path"></path>
                        <polygon id="Path" points="27.8782241 6.10909091 27.8782241 4.92892562 24.7183932 4.92892562 24.7183932 3.47107438 27.2731501 3.47107438 27.2731501 2.31404959 24.7183932 2.31404959 24.7183932 1.27272727 27.7437632 1.27272727 27.7437632 0.0925619835 23.4858351 0.0925619835 23.4858351 6.10909091"></polygon>
                        <path d="M33.5479915,1.6892562 C33.3911205,1.31900826 33.1894292,0.995041322 32.8980973,0.763636364 C32.6291755,0.532231405 32.3154334,0.347107438 31.9344609,0.254545455 C31.5534884,0.138842975 31.1501057,0.0925619835 30.7243129,0.0925619835 L28.7970402,0.0925619835 L28.7970402,6.10909091 L30.6346723,6.10909091 C31.0156448,6.10909091 31.4190275,6.06280992 31.7775899,5.94710744 C32.1585624,5.83140496 32.4947146,5.64628099 32.7860465,5.41487603 C33.0773784,5.16033058 33.3238901,4.85950413 33.5031712,4.4892562 C33.6824524,4.11900826 33.772093,3.65619835 33.772093,3.12396694 C33.772093,2.54545455 33.7048626,2.08264463 33.5479915,1.6892562 Z M32.405074,3.84132231 C32.3378436,4.07272727 32.2257928,4.25785124 32.0689218,4.41983471 C31.9120507,4.58181818 31.7327696,4.69752066 31.4862579,4.79008264 C31.2397463,4.88264463 30.9708245,4.92892562 30.6570825,4.92892562 L30.0520085,4.92892562 L30.0520085,1.24958678 L30.7019027,1.24958678 C31.351797,1.24958678 31.8224101,1.41157025 32.1137421,1.71239669 C32.405074,2.01322314 32.5395349,2.47603306 32.5395349,3.10082645 C32.5171247,3.3785124 32.4723044,3.63305785 32.405074,3.84132231 Z" id="Shape"></path>
                        <polygon id="Path" points="36.192389 6.10909091 36.192389 0.0925619835 34.9598309 0.0925619835 34.9598309 6.10909091"></polygon>
                        <polygon id="Path" points="41.9069767 1.27272727 41.9069767 0.0925619835 37.1560254 0.0925619835 37.1560254 1.27272727 38.9264271 1.27272727 38.9264271 6.10909091 40.1589852 6.10909091 40.1589852 1.27272727"></polygon>
                        <path d="M52.7534884,1.6892562 C52.5966173,1.31900826 52.394926,0.995041322 52.1035941,0.763636364 C51.8346723,0.532231405 51.5209302,0.347107438 51.1399577,0.254545455 C50.7589852,0.138842975 50.3556025,0.0925619835 49.9298097,0.0925619835 L48.0249471,0.0925619835 L48.0249471,6.10909091 L49.8625793,6.10909091 C50.2435518,6.10909091 50.6469345,6.06280992 51.0054968,5.94710744 C51.3864693,5.83140496 51.7226216,5.64628099 52.0139535,5.41487603 C52.3052854,5.16033058 52.551797,4.85950413 52.7310782,4.4892562 C52.9103594,4.11900826 53,3.65619835 53,3.12396694 C53,2.54545455 52.9103594,2.08264463 52.7534884,1.6892562 Z M51.6105708,3.84132231 C51.5433404,4.07272727 51.4312896,4.25785124 51.2744186,4.41983471 C51.1175476,4.58181818 50.9382664,4.69752066 50.6917548,4.79008264 C50.4452431,4.88264463 50.1763214,4.92892562 49.8625793,4.92892562 L49.2575053,4.92892562 L49.2575053,1.24958678 L49.9073996,1.24958678 C50.5572939,1.24958678 51.027907,1.41157025 51.3192389,1.71239669 C51.6105708,2.01322314 51.7450317,2.47603306 51.7450317,3.10082645 C51.7226216,3.3785124 51.7002114,3.63305785 51.6105708,3.84132231 Z" id="Shape"></path>
                        <polygon id="Path" points="47.1061311 6.10909091 47.1061311 4.92892562 43.9238901 4.92892562 43.9238901 3.47107438 46.4786469 3.47107438 46.4786469 2.31404959 43.9238901 2.31404959 43.9238901 1.27272727 46.9716702 1.27272727 46.9716702 0.0925619835 42.7137421 0.0925619835 42.7137421 6.10909091"></polygon>
                        <polygon id="Path" points="36.8198732 13.8842975 36.8198732 12.7041322 33.6600423 12.7041322 33.6600423 11.246281 36.2147992 11.246281 36.2147992 10.0661157 33.6600423 10.0661157 33.6600423 9.02479339 36.6854123 9.02479339 36.6854123 7.8677686 32.4274841 7.8677686 32.4274841 13.8842975"></polygon>
                        <path d="M16.7403805,1.06446281 C16.3818182,0.624793388 15.7991543,0.231404959 15.2613108,0.0925619835 C15.0372093,0.0231404959 14.7682875,0 14.4769556,0 C14.0735729,0 13.7150106,0.0694214876 13.3788584,0.231404959 C13.0427061,0.39338843 12.7513742,0.601652893 12.5272727,0.856198347 C12.2807611,1.1338843 12.1014799,1.45785124 11.967019,1.82809917 C11.8325581,2.19834711 11.7653277,2.63801653 11.7653277,3.07768595 C11.7653277,3.56363636 11.8325581,3.98016529 11.967019,4.37355372 C12.1014799,4.74380165 12.2807611,5.09090909 12.5048626,5.34545455 C12.7513742,5.6231405 13.020296,5.83140496 13.3564482,5.97024793 C13.6926004,6.10909091 14.0511628,6.1785124 14.4545455,6.1785124 C15.1940803,6.1785124 16.4938689,5.76198347 16.8524313,5.0214876 L15.9784355,4.21157025 C15.7319239,4.62809917 14.9475687,4.97520661 14.4993658,4.97520661 C14.2752643,4.97520661 14.0735729,4.92892562 13.8942918,4.83636364 C13.7150106,4.74380165 13.5581395,4.60495868 13.4236786,4.44297521 C13.2892178,4.28099174 13.1995772,4.07272727 13.1323467,3.84132231 C13.0651163,3.60991736 13.0427061,3.3553719 13.0427061,3.07768595 C13.0427061,2.8 13.0651163,2.54545455 13.1323467,2.31404959 C13.1995772,2.08264463 13.2892178,1.87438017 13.4236786,1.71239669 C13.5357294,1.55041322 13.6926004,1.41157025 13.8718816,1.31900826 C14.0511628,1.22644628 14.2528541,1.18016529 14.4769556,1.18016529 C14.9475687,1.18016529 15.597463,1.50413223 15.8887949,1.92066116 L16.7403805,1.06446281 L16.7403805,1.06446281 Z" id="Path"></path>
                        <path d="M11.4739958,11.107438 C11.3171247,10.8991736 11.1154334,10.7371901 10.8689218,10.6214876 C11.0706131,10.5057851 11.2274841,10.3438017 11.3395349,10.1355372 C11.4515856,9.92727273 11.4964059,9.69586777 11.4964059,9.44132231 C11.4964059,8.9322314 11.3171247,8.53884298 10.9809725,8.26115702 C10.6448203,7.98347107 10.1742072,7.8446281 9.59154334,7.8446281 L6.85750529,7.8446281 L6.85750529,13.861157 L9.56913319,13.861157 C9.88287526,13.861157 10.1742072,13.814876 10.443129,13.7454545 C10.7120507,13.6528926 10.9361522,13.5371901 11.1154334,13.3752066 C11.2947146,13.2132231 11.4515856,13.0049587 11.5412262,12.7735537 C11.653277,12.5190083 11.6980973,12.2413223 11.6980973,11.9404959 C11.7205074,11.5933884 11.6308668,11.3157025 11.4739958,11.107438 Z M8.04524313,8.9553719 L9.56913319,8.9553719 C9.83805497,8.9553719 10.0173362,9.00165289 10.1293869,9.09421488 C10.2414376,9.18677686 10.3086681,9.32561983 10.3086681,9.5338843 C10.3086681,9.69586777 10.2638478,9.83471074 10.151797,9.95041322 C10.0621564,10.0661157 9.88287526,10.1123967 9.63636364,10.1123967 L8.04524313,10.1123967 L8.04524313,8.9553719 L8.04524313,8.9553719 Z M10.2862579,12.5190083 C10.151797,12.6578512 9.92769556,12.7272727 9.63636364,12.7272727 L8.04524313,12.7272727 L8.04524313,11.1768595 L9.63636364,11.1768595 C10.1966173,11.1768595 10.4879493,11.431405 10.4879493,11.9404959 C10.4879493,12.1950413 10.4207188,12.3801653 10.2862579,12.5190083 Z" id="Shape"></path>
                        <path d="M17.3678647,11.2231405 L17.3678647,7.8677686 L16.1801268,7.8677686 L16.1801268,11.246281 C16.1801268,11.7322314 16.0680761,12.1256198 15.8439746,12.3801653 C15.6198732,12.6578512 15.3285412,12.7966942 14.9475687,12.7966942 C14.5665962,12.7966942 14.2752643,12.6578512 14.0511628,12.3801653 C13.8270613,12.1024793 13.7150106,11.7090909 13.7150106,11.2231405 L13.7150106,7.8677686 L12.5272727,7.8677686 L12.5272727,11.246281 C12.5272727,11.6859504 12.5945032,12.0793388 12.7065539,12.4264463 C12.8186047,12.7735537 12.9978858,13.0512397 13.1995772,13.2826446 C13.4012685,13.5140496 13.6701903,13.6991736 13.9615222,13.814876 C14.2528541,13.9305785 14.5890063,14 14.9475687,14 C15.7095137,14 16.3145877,13.768595 16.7403805,13.2826446 C17.1437632,12.7735537 17.3678647,12.1024793 17.3678647,11.2231405 L17.3678647,11.2231405 Z" id="Path"></path>
                        <path d="M22.858351,12.0561983 C22.858351,11.7322314 22.7911205,11.4545455 22.6790698,11.246281 C22.567019,11.0380165 22.410148,10.8528926 22.2084567,10.7140496 C22.0067653,10.5752066 21.805074,10.4595041 21.5585624,10.3900826 C21.3120507,10.3206612 21.0879493,10.2512397 20.8414376,10.1818182 C20.594926,10.1355372 20.4156448,10.0661157 20.2587738,10.0198347 C20.1019027,9.97355372 19.989852,9.92727273 19.9002114,9.88099174 C19.8105708,9.83471074 19.7433404,9.76528926 19.6985201,9.69586777 C19.6536998,9.62644628 19.6536998,9.55702479 19.6536998,9.44132231 C19.6536998,9.37190083 19.6761099,9.30247934 19.6985201,9.23305785 C19.7209302,9.16363636 19.7657505,9.11735537 19.832981,9.07107438 C19.9002114,9.02479339 19.989852,8.9785124 20.1019027,8.9553719 C20.2139535,8.9322314 20.3484144,8.90909091 20.5052854,8.90909091 C20.7742072,8.90909091 21.0207188,8.9553719 21.2448203,9.07107438 C21.4689218,9.18677686 21.6706131,9.32561983 21.8723044,9.5338843 L22.7463002,8.70082645 C22.4549683,8.4 22.1412262,8.16859504 21.7826638,8.00661157 C21.4241015,7.8446281 21.0207188,7.75206612 20.5501057,7.75206612 C20.2587738,7.75206612 19.9674419,7.79834711 19.7209302,7.8677686 C19.4520085,7.93719008 19.227907,8.05289256 19.0486258,8.21487603 C18.8469345,8.3768595 18.7124736,8.56198347 18.6004228,8.77024793 C18.4883721,8.9785124 18.4435518,9.23305785 18.4435518,9.5107438 C18.4435518,9.81157025 18.4883721,10.0661157 18.5780127,10.2512397 C18.6676533,10.4595041 18.8021142,10.6214876 18.9589852,10.7603306 C19.1158562,10.8991736 19.3175476,10.9917355 19.5640592,11.0842975 C19.7881607,11.1768595 20.0570825,11.246281 20.3260042,11.3157025 C20.594926,11.385124 20.8414376,11.431405 21.0207188,11.5008264 C21.2,11.5471074 21.3344609,11.6165289 21.4241015,11.6859504 C21.5137421,11.7553719 21.5809725,11.8247934 21.6257928,11.8942149 C21.6706131,11.9636364 21.6706131,12.0561983 21.6706131,12.1487603 C21.6706131,12.3801653 21.5809725,12.5421488 21.4241015,12.6578512 C21.2672304,12.7504132 20.9983087,12.8198347 20.6397463,12.8198347 C20.3484144,12.8198347 20.0794926,12.7735537 19.8105708,12.6578512 C19.541649,12.5421488 19.3175476,12.3801653 19.1158562,12.1256198 L18.2418605,12.8892562 C18.4659619,13.2363636 18.779704,13.4909091 19.2054968,13.6991736 C19.6088795,13.8842975 20.0794926,14 20.5725159,14 C20.9758985,14 21.3344609,13.953719 21.6257928,13.861157 C21.9171247,13.768595 22.1636364,13.6297521 22.3653277,13.4677686 C22.567019,13.3057851 22.7014799,13.0975207 22.7911205,12.8661157 C22.8135307,12.5884298 22.858351,12.3338843 22.858351,12.0561983 L22.858351,12.0561983 Z" id="Path"></path>
                        <polygon id="Path" points="25.0321353 13.8842975 25.0321353 7.8677686 23.8219873 7.8677686 23.8219873 13.8842975"></polygon>
                        <path d="M31.1276956,13.8842975 L31.1276956,7.8677686 L29.9399577,7.8677686 L29.9399577,10.4132231 C29.9399577,10.5057851 29.9399577,10.5983471 29.9399577,10.7371901 C29.9399577,10.8528926 29.9399577,10.9917355 29.9399577,11.1305785 C29.9399577,11.246281 29.9399577,11.385124 29.9399577,11.477686 C29.9399577,11.5933884 29.9399577,11.6628099 29.9399577,11.7322314 C29.8951374,11.6628099 29.827907,11.5471074 29.7606765,11.4082645 C29.6710359,11.2694215 29.6038055,11.153719 29.5365751,11.0380165 L27.407611,7.8677686 L26.2646934,7.8677686 L26.2646934,13.8842975 L27.4524313,13.8842975 L27.4524313,11.246281 C27.4524313,11.153719 27.4524313,11.061157 27.4524313,10.922314 C27.4524313,10.8066116 27.4524313,10.6677686 27.4524313,10.5520661 C27.4524313,10.4132231 27.4524313,10.2975207 27.4524313,10.1818182 C27.4524313,10.0661157 27.4524313,9.99669421 27.4524313,9.92727273 C27.4972516,9.99669421 27.564482,10.1123967 27.6317125,10.2512397 C27.7213531,10.3900826 27.7885835,10.5057851 27.855814,10.6214876 L30.0520085,13.907438 L31.1276956,13.8842975 L31.1276956,13.8842975 Z" id="Path"></path>
                        <path d="M41.7052854,12.0561983 C41.7052854,11.7322314 41.638055,11.4545455 41.5260042,11.246281 C41.4139535,11.0380165 41.2570825,10.8528926 41.0553911,10.7140496 C40.8536998,10.5752066 40.6520085,10.4595041 40.4054968,10.3900826 C40.1589852,10.3206612 39.9348837,10.2512397 39.6883721,10.1818182 C39.4418605,10.1355372 39.2625793,10.0661157 39.1057082,10.0198347 C38.9488372,9.97355372 38.8367865,9.92727273 38.7471459,9.88099174 C38.6575053,9.83471074 38.5902748,9.76528926 38.5454545,9.69586777 C38.5006342,9.62644628 38.5006342,9.55702479 38.5006342,9.44132231 C38.5006342,9.37190083 38.5230444,9.30247934 38.5454545,9.23305785 C38.5678647,9.16363636 38.612685,9.11735537 38.6799154,9.07107438 C38.7471459,9.02479339 38.8367865,8.9785124 38.9488372,8.9553719 C39.0608879,8.9322314 39.1953488,8.90909091 39.3522199,8.90909091 C39.6211416,8.90909091 39.8676533,8.9553719 40.0917548,9.07107438 C40.3158562,9.18677686 40.5175476,9.32561983 40.7192389,9.5338843 L41.5932347,8.70082645 C41.3019027,8.4 40.9881607,8.16859504 40.6295983,8.00661157 C40.2710359,7.8446281 39.8676533,7.75206612 39.3970402,7.75206612 C39.1057082,7.75206612 38.8143763,7.79834711 38.5678647,7.8677686 C38.2989429,7.93719008 38.0748414,8.05289256 37.8955603,8.21487603 C37.6938689,8.3768595 37.559408,8.56198347 37.4473573,8.77024793 C37.3353066,8.9785124 37.2904863,9.23305785 37.2904863,9.5107438 C37.2904863,9.81157025 37.3353066,10.0661157 37.4249471,10.2512397 C37.5145877,10.4595041 37.6490486,10.6214876 37.8059197,10.7603306 C37.9627907,10.8991736 38.164482,10.9917355 38.4109937,11.0842975 C38.6350951,11.1768595 38.9040169,11.246281 39.1729387,11.3157025 C39.4418605,11.385124 39.6883721,11.431405 39.8676533,11.5008264 C40.0469345,11.5471074 40.1813953,11.6165289 40.2710359,11.6859504 C40.3606765,11.7553719 40.427907,11.8247934 40.4727273,11.8942149 C40.5175476,11.9636364 40.5175476,12.0561983 40.5175476,12.1487603 C40.5175476,12.3801653 40.427907,12.5421488 40.2710359,12.6578512 C40.1141649,12.7504132 39.8452431,12.8198347 39.4866808,12.8198347 C39.1953488,12.8198347 38.9264271,12.7735537 38.6575053,12.6578512 C38.3885835,12.5421488 38.164482,12.3801653 37.9627907,12.1256198 L37.0887949,12.8892562 C37.3128964,13.2363636 37.6266385,13.4909091 38.0524313,13.6991736 C38.455814,13.8842975 38.9264271,14 39.4194503,14 C39.822833,14 40.1813953,13.953719 40.4727273,13.861157 C40.7640592,13.768595 41.0105708,13.6297521 41.2122622,13.4677686 C41.4139535,13.3057851 41.5484144,13.0975207 41.638055,12.8661157 C41.6604651,12.5884298 41.7052854,12.3338843 41.7052854,12.0561983 L41.7052854,12.0561983 Z" id="Path"></path>
                        <path d="M46.8596195,12.0561983 C46.8596195,11.7322314 46.792389,11.4545455 46.6803383,11.246281 C46.5682875,11.0380165 46.4114165,10.8528926 46.2097252,10.7140496 C46.0080338,10.5752066 45.8063425,10.4595041 45.5598309,10.3900826 C45.3133192,10.3206612 45.0892178,10.2512397 44.8427061,10.1818182 C44.5961945,10.1355372 44.4169133,10.0661157 44.2600423,10.0198347 C44.1031712,9.97355372 43.9911205,9.92727273 43.9014799,9.88099174 C43.8118393,9.83471074 43.7446089,9.76528926 43.6997886,9.69586777 C43.6549683,9.62644628 43.6549683,9.55702479 43.6549683,9.44132231 C43.6549683,9.37190083 43.6773784,9.30247934 43.6997886,9.23305785 C43.7221987,9.16363636 43.767019,9.11735537 43.8342495,9.07107438 C43.9014799,9.02479339 43.9911205,8.9785124 44.1031712,8.9553719 C44.215222,8.9322314 44.3496829,8.90909091 44.5065539,8.90909091 C44.7754757,8.90909091 45.0219873,8.9553719 45.2460888,9.07107438 C45.4701903,9.18677686 45.6718816,9.32561983 45.8735729,9.5338843 L46.7475687,8.70082645 C46.4562368,8.4 46.1424947,8.16859504 45.7839323,8.00661157 C45.42537,7.8446281 45.0219873,7.75206612 44.5513742,7.75206612 C44.2600423,7.75206612 43.9687104,7.79834711 43.7221987,7.8677686 C43.453277,7.93719008 43.2291755,8.05289256 43.0498943,8.21487603 C42.848203,8.3768595 42.7137421,8.56198347 42.6016913,8.77024793 C42.4896406,8.9785124 42.4448203,9.23305785 42.4448203,9.5107438 C42.4448203,9.81157025 42.4896406,10.0661157 42.5792812,10.2512397 C42.6689218,10.4595041 42.8033827,10.6214876 42.9602537,10.7603306 C43.1171247,10.8991736 43.3188161,10.9917355 43.5653277,11.0842975 C43.7894292,11.1768595 44.058351,11.246281 44.3272727,11.3157025 C44.5961945,11.385124 44.8427061,11.431405 44.9995772,11.5008264 C45.1788584,11.5471074 45.3133192,11.6165289 45.4029598,11.6859504 C45.4926004,11.7553719 45.5598309,11.8247934 45.6046512,11.8942149 C45.6494715,11.9636364 45.6494715,12.0561983 45.6494715,12.1487603 C45.6494715,12.3801653 45.5598309,12.5421488 45.4029598,12.6578512 C45.2460888,12.7504132 44.977167,12.8198347 44.6186047,12.8198347 C44.3272727,12.8198347 44.058351,12.7735537 43.7894292,12.6578512 C43.5205074,12.5421488 43.2964059,12.3801653 43.0947146,12.1256198 L42.2207188,12.8892562 C42.4448203,13.2363636 42.7585624,13.4909091 43.1843552,13.6991736 C43.5877378,13.8842975 44.058351,14 44.5513742,14 C44.9547569,14 45.3133192,13.953719 45.6046512,13.861157 C45.8959831,13.768595 46.1424947,13.6297521 46.344186,13.4677686 C46.5458774,13.3057851 46.6803383,13.0975207 46.7699789,12.8661157 C46.8147992,12.5884298 46.8596195,12.3338843 46.8596195,12.0561983 L46.8596195,12.0561983 Z" id="Path"></path>
                        <path d="M3.54080338,0.0925619835 L2.35306554,0.0925619835 L0,6.10909091 L1.32219873,6.10909091 L1.81522199,4.76694215 L4.05623679,4.76694215 L4.54926004,6.10909091 L5.89386892,6.10909091 L3.54080338,0.0925619835 Z M2.21860465,3.60991736 L2.62198732,2.52231405 C2.68921776,2.33719008 2.7564482,2.17520661 2.8012685,2.01322314 C2.84608879,1.85123967 2.89090909,1.71239669 2.93572939,1.59669421 C2.95813953,1.71239669 3.00295983,1.85123967 3.07019027,2.01322314 C3.11501057,2.17520661 3.18224101,2.36033058 3.24947146,2.52231405 L3.65285412,3.60991736 L2.21860465,3.60991736 Z" id="Shape"></path>
                        <path d="M21.356871,3.81818182 C21.7378436,3.67933884 22.1860465,3.40165289 22.3877378,3.10082645 C22.5894292,2.8 22.6790698,2.42975207 22.6790698,1.99008264 C22.6790698,1.6661157 22.6342495,1.38842975 22.5221987,1.15702479 C22.410148,0.925619835 22.253277,0.717355372 22.0739958,0.555371901 C21.8723044,0.39338843 21.648203,0.27768595 21.4016913,0.208264463 C21.1551797,0.138842975 20.8638478,0.0925619835 20.594926,0.0925619835 L17.7264271,0.0925619835 L17.7264271,6.10909091 L18.9589852,6.10909091 L18.9589852,3.9338843 L20.0570825,3.98016529 L21.3344609,6.08595041 L22.7463002,6.08595041 L21.356871,3.81818182 Z M20.5276956,2.8 L18.9141649,2.8 L18.9141649,1.24958678 L20.5276956,1.24958678 C20.7966173,1.24958678 21.0207188,1.31900826 21.1775899,1.43471074 C21.3344609,1.55041322 21.4016913,1.75867769 21.4016913,2.01322314 C21.4016913,2.54545455 21.1103594,2.8 20.5276956,2.8 Z" id="Shape"></path>
                    </g>
                </g>
            </g>
        </g>
    </g>
</svg>