<?xml version="1.0" encoding="utf-8"?>
<!-- Generator: Adobe Illustrator 25.2.0, SVG Export Plug-In . SVG Version: 6.00 Build 0)  -->
<svg version="1.1" id="Layer_1" xmlns="http://www.w3.org/2000/svg" xmlns:xlink="http://www.w3.org/1999/xlink" x="0px" y="0px"
	 viewBox="0 0 204.5 103.9" style="enable-background:new 0 0 204.5 103.9;" xml:space="preserve">
<style type="text/css">
	.st0{fill-rule:evenodd;clip-rule:evenodd;}
</style>
<path d="M70.4,28h93.7c9.4,0,17.2,3,23.9,9.1c6.5,6,9.7,13.2,9.8,22l1.3,0l-1.3,0c-0.1,8.6-3.3,15.7-9.8,21.8l0,0
	c-6.6,6.1-14.5,9.2-23.9,9.2H70.4c-0.7,0-1.3,0.6-1.3,1.3c0,0.7,0.6,1.3,1.3,1.3h93.7c10,0,18.6-3.3,25.7-9.9l0,0
	c7-6.5,10.6-14.5,10.6-23.8v0c-0.1-9.4-3.6-17.5-10.7-23.9c-7.1-6.5-15.7-9.8-25.7-9.8H70.4c-0.7,0-1.3,0.6-1.3,1.3
	C69,27.4,69.6,28,70.4,28z M70.4,28h93.7c9.4,0,17.2,3,23.9,9.1c6.5,6,9.7,13.2,9.8,22l1.3,0l-1.3,0c-0.1,8.6-3.3,15.7-9.8,21.8l0,0
	c-6.6,6.1-14.5,9.2-23.9,9.2H70.4c-0.7,0-1.3,0.6-1.3,1.3c0,0.7,0.6,1.3,1.3,1.3h93.7c10,0,18.6-3.3,25.7-9.9l0,0
	c7-6.5,10.6-14.5,10.6-23.8v0c-0.1-9.4-3.6-17.5-10.7-23.9c-7.1-6.5-15.7-9.8-25.7-9.8H70.4c-0.7,0-1.3,0.6-1.3,1.3
	C69,27.4,69.6,28,70.4,28z"/>
<path class="st0" d="M62.1,27.2c5.4,3.1,9.6,7.4,12.7,12.6c3.1,5.4,4.7,11.3,4.8,17.8c-0.1,6.6-1.6,12.6-4.8,17.8
	c-3.1,5.3-7.4,9.5-12.7,12.7c-5.3,3.1-11.2,4.7-17.8,4.8c-6.5-0.1-12.5-1.6-17.8-4.8c-5.4-3.2-9.6-7.5-12.6-12.7
	C10.6,70.3,9.1,64.4,9,57.7c0.1-6.5,1.6-12.5,4.9-17.8c3-5.3,7.3-9.5,12.6-12.6c5.3-3.1,11.3-4.8,17.8-4.9
	C50.8,22.5,56.8,24.1,62.1,27.2 M44.2,15.2c-7.9,0.1-15.1,2-21.5,5.8c-6.3,3.8-11.3,8.9-15.2,15.2c-3.8,6.4-5.7,13.6-5.8,21.5
	c0.1,7.9,2,15.1,5.8,21.5c3.9,6.4,8.9,11.5,15.2,15.4c6.4,3.7,13.6,5.6,21.5,5.8c8-0.1,15.2-2,21.6-5.8c6.4-3.9,11.5-9,15.3-15.4
	c3.7-6.4,5.7-13.6,5.8-21.5c-0.1-7.9-2-15.1-5.8-21.5c-3.8-6.3-8.9-11.4-15.3-15.2C59.4,17.2,52.2,15.3,44.2,15.2z"/>
<polyline points="97.7,45.4 100.6,45.4 103.7,54 106.9,45.4 109.8,45.4 105,57.6 102.6,57.6 97.7,45.4 "/>
<path d="M131.5,48.3h2.7v9.3h-2.7V48.3z M131.5,44.9h2.8v2.3h-2.8V44.9z M123.1,48.3h2.6v1.8c0.3-0.6,0.7-1.1,1.1-1.5
	c0.4-0.4,1-0.6,1.8-0.5v2.8h-0.1c-1,0-1.6,0.3-2.1,0.8c-0.5,0.5-0.8,1.4-0.8,2.5v3.4h-2.6V48.3z M117.5,52.2c-0.1-0.6-0.3-1-0.6-1.5
	c-0.3-0.3-0.8-0.5-1.3-0.5c-0.6,0-1,0.2-1.4,0.5c-0.3,0.4-0.6,0.9-0.7,1.5H117.5z M115.8,57.8c-0.6,0-1.3-0.2-1.9-0.4
	c-0.6-0.2-1.1-0.5-1.6-1c-0.4-0.4-0.7-0.9-1-1.5c-0.3-0.6-0.4-1.3-0.4-2c0-0.7,0.1-1.3,0.3-1.9c0.3-0.6,0.5-1.1,1-1.6
	c0.4-0.4,0.9-0.8,1.5-1c0.6-0.3,1.2-0.3,1.9-0.3c0.8,0,1.4,0.2,2,0.4c0.6,0.3,1,0.6,1.4,1.1c0.3,0.4,0.6,1,0.9,1.6
	c0.2,0.6,0.3,1.3,0.3,1.9l-0.1,0.3v0.3h-6.4c0.1,0.6,0.3,1,0.8,1.4c0.4,0.3,0.9,0.4,1.5,0.4c0.4,0,0.8-0.1,1.2-0.3
	c0.3-0.1,0.6-0.3,1-0.7l1.5,1.3c-0.4,0.6-1,1-1.6,1.3C117.4,57.6,116.6,57.8,115.8,57.8z"/>
<path d="M142.4,57.7c-1,0-1.8-0.2-2.8-0.5c-0.9-0.3-1.6-0.8-2.4-1.5l1.6-1.8c0.5,0.4,1,0.8,1.6,1c0.6,0.3,1.2,0.4,1.9,0.4
	c0.6,0,1-0.1,1.3-0.3c0.3-0.2,0.4-0.4,0.4-0.8v-0.5l-0.4-0.3L143,53l-1.3-0.4l-1.6-0.4l-1.3-0.7l-0.8-1c-0.2-0.4-0.3-0.9-0.3-1.5
	v-0.1l0.3-1.5c0.3-0.4,0.5-0.9,1-1.1c0.3-0.3,0.8-0.6,1.3-0.8c0.5-0.2,1.1-0.3,1.7-0.3c0.9,0,1.6,0.2,2.4,0.4
	c0.8,0.3,1.5,0.6,2.1,1.1l-1.4,2l-1.6-0.9c-0.5-0.3-1-0.3-1.6-0.3c-0.5,0-0.9,0.1-1.1,0.3c-0.3,0.2-0.4,0.4-0.4,0.7v0.1l0.2,0.5
	l0.3,0.3l0.9,0.3l1.3,0.3l1.6,0.6c0.4,0.2,0.9,0.4,1.2,0.7l0.7,1c0.2,0.4,0.3,0.9,0.3,1.4V54c0,0.6-0.1,1.1-0.3,1.6
	c-0.2,0.4-0.4,0.9-0.9,1.2c-0.4,0.3-0.9,0.5-1.5,0.7C143.6,57.6,143,57.7,142.4,57.7"/>
<path d="M150.2,48.3h2.7v9.3h-2.7V48.3z M150.1,44.9h2.8v2.3h-2.8V44.9z"/>
<path d="M169.6,48.3h2.6v1.3l0.5-0.5l0.6-0.5l0.7-0.3l0.9-0.1c1,0,1.8,0.3,2.3,1c0.6,0.6,0.9,1.4,0.9,2.5v6h-2.7v-5.2
	c0-0.6-0.1-1-0.3-1.4c-0.3-0.3-0.7-0.4-1.2-0.4c-0.5,0-1,0.2-1.2,0.4c-0.3,0.3-0.4,0.8-0.4,1.4v5.2h-2.6V48.3 M161.3,54.6l1-0.2
	c0.3-0.1,0.4-0.2,0.7-0.4c0.2-0.2,0.3-0.4,0.4-0.7c0.1-0.3,0.2-0.5,0.2-0.9l-0.2-0.9c-0.1-0.3-0.3-0.5-0.4-0.7l-0.7-0.4l-1-0.2
	l-0.9,0.2l-0.7,0.4c-0.3,0.2-0.4,0.4-0.5,0.7l-0.2,0.9c0,0.7,0.3,1.2,0.7,1.6C160.1,54.4,160.7,54.6,161.3,54.6z M161,60.3l-2.2-0.3
	c-0.8-0.1-1.4-0.3-2-0.7l1-2l1.5,0.7l1.6,0.2c0.9,0,1.6-0.2,2-0.6c0.4-0.4,0.6-1,0.6-1.9v-0.4c-0.3,0.4-0.8,0.9-1.2,1.1
	c-0.4,0.3-1,0.3-1.8,0.3c-0.5,0-1-0.1-1.6-0.3c-0.4-0.2-0.9-0.4-1.3-0.9c-0.3-0.3-0.6-0.8-0.9-1.3c-0.3-0.6-0.3-1.2-0.3-1.9
	c0-0.7,0.1-1.3,0.3-1.8c0.3-0.6,0.5-1,0.9-1.4c0.4-0.4,0.9-0.7,1.4-0.9l1.5-0.3c0.8,0,1.4,0.2,1.8,0.4c0.4,0.3,0.9,0.5,1.2,1v-1.2
	h2.6v7.2c0,1.6-0.3,2.9-1.1,3.6c-0.4,0.4-1,0.8-1.6,1L161,60.3z"/>
<path d="M104.4,72.9c-1,0-1.8-0.2-2.8-0.5c-0.9-0.3-1.6-0.8-2.4-1.5l1.6-1.8c0.5,0.4,1,0.8,1.6,1c0.6,0.3,1.2,0.4,1.9,0.4
	c0.6,0,1-0.1,1.3-0.3c0.3-0.2,0.4-0.4,0.4-0.8v-0.5l-0.4-0.3l-0.7-0.3l-1.3-0.4l-1.6-0.4l-1.3-0.7l-0.8-1c-0.2-0.4-0.3-0.9-0.3-1.5
	V64l0.3-1.5c0.3-0.4,0.5-0.9,1-1.1c0.3-0.3,0.8-0.6,1.3-0.8c0.5-0.2,1.1-0.3,1.7-0.3c0.9,0,1.6,0.2,2.4,0.4c0.8,0.3,1.5,0.6,2.1,1.1
	l-1.4,2l-1.6-0.9c-0.5-0.3-1-0.3-1.6-0.3c-0.5,0-0.9,0.1-1.1,0.3c-0.3,0.2-0.4,0.4-0.4,0.7v0.1l0.2,0.5l0.3,0.3l0.9,0.3l1.3,0.3
	l1.6,0.6c0.4,0.2,0.9,0.4,1.2,0.7l0.7,1c0.2,0.4,0.3,0.9,0.3,1.4v0.1c0,0.6-0.1,1.1-0.3,1.6c-0.2,0.4-0.4,0.9-0.9,1.2
	c-0.4,0.3-0.9,0.5-1.5,0.7C105.6,72.8,105,72.9,104.4,72.9"/>
<path d="M128.9,73c-0.7,0-1.3-0.2-1.9-0.4c-0.6-0.3-1.1-0.6-1.6-1c-0.4-0.4-0.7-0.9-1-1.5c-0.3-0.6-0.4-1.3-0.4-1.9
	c0-0.7,0.2-1.3,0.4-1.9c0.3-0.6,0.5-1.1,1-1.6c0.4-0.4,1-0.8,1.6-1c0.6-0.3,1.2-0.3,2-0.3c0.9,0,1.6,0.2,2.2,0.4
	c0.6,0.3,1,0.6,1.5,1.1l-1.6,1.7c-0.3-0.3-0.6-0.6-1-0.8c-0.3-0.2-0.7-0.3-1.2-0.3l-0.9,0.2l-0.7,0.6l-0.5,0.8l-0.2,1v0.1
	c0,0.3,0.1,0.7,0.2,1c0.1,0.3,0.3,0.6,0.5,0.9c0.2,0.3,0.4,0.4,0.7,0.5c0.3,0.1,0.6,0.2,1,0.2c0.4,0,0.8-0.1,1.1-0.3l1-0.7l1.6,1.6
	c-0.4,0.4-1,0.9-1.6,1.2C130.6,72.8,129.9,73,128.9,73 M118.6,67.3c-0.1-0.6-0.3-1-0.6-1.5c-0.3-0.3-0.8-0.5-1.3-0.5
	c-0.6,0-1,0.2-1.4,0.5c-0.3,0.4-0.6,0.9-0.7,1.5H118.6z M116.8,73c-0.6,0-1.3-0.2-1.9-0.4c-0.6-0.2-1.1-0.5-1.6-1
	c-0.4-0.4-0.7-0.9-1-1.5c-0.3-0.6-0.4-1.3-0.4-2c0-0.7,0.1-1.3,0.3-1.9c0.3-0.6,0.5-1.1,1-1.6c0.4-0.4,0.9-0.8,1.5-1
	c0.6-0.3,1.2-0.3,1.9-0.3c0.8,0,1.4,0.2,2,0.4c0.6,0.3,1,0.6,1.4,1.1c0.3,0.4,0.6,1,0.9,1.6c0.2,0.6,0.3,1.3,0.3,1.9l-0.1,0.3V69
	h-6.4c0.1,0.6,0.3,1,0.8,1.4c0.4,0.3,0.9,0.4,1.5,0.4c0.4,0,0.8-0.1,1.2-0.3c0.3-0.1,0.6-0.3,1-0.7l1.5,1.3c-0.4,0.6-1,1-1.6,1.3
	C118.5,72.8,117.7,73,116.8,73z"/>
<path d="M139.1,72.9c-1,0-1.7-0.3-2.3-1c-0.5-0.6-0.8-1.4-0.8-2.5v-6h2.6v5.2c0,0.6,0.2,1,0.4,1.4c0.3,0.3,0.7,0.4,1.2,0.4
	c0.4,0,0.9-0.2,1.2-0.4c0.3-0.3,0.4-0.8,0.4-1.4v-5.2h2.6v9.3h-2.6v-1.3l-0.5,0.5l-0.6,0.5l-0.7,0.3L139.1,72.9"/>
<path d="M173.9,70.6c0.3,0,0.7-0.1,1-0.2l0.7-0.5c0.2-0.3,0.3-0.5,0.4-0.8l0.2-1V68l-0.2-1l-0.4-0.8l-0.7-0.5
	c-0.3-0.1-0.6-0.2-1-0.2l-0.9,0.2l-0.7,0.5l-0.5,0.8c-0.1,0.3-0.2,0.6-0.2,1v0.1l0.2,1c0.1,0.3,0.3,0.5,0.5,0.8l0.7,0.5L173.9,70.6
	 M173.3,72.9c-0.6,0-1.1-0.1-1.6-0.3c-0.4-0.2-0.9-0.4-1.3-0.9c-0.4-0.4-0.7-1-1-1.6c-0.3-0.6-0.3-1.2-0.3-2V68
	c0-0.8,0.1-1.5,0.3-2.1c0.3-0.6,0.5-1,1-1.5c0.3-0.4,0.8-0.7,1.3-0.9c0.5-0.3,1-0.3,1.6-0.3c0.7,0,1.3,0.2,1.7,0.4
	c0.4,0.3,0.9,0.5,1.1,1v-4.6h2.6v12.6h-2.6v-1.3c-0.3,0.4-0.7,0.8-1.1,1C174.6,72.7,174,72.9,173.3,72.9z M163.4,67.3
	c-0.1-0.6-0.3-1-0.6-1.5c-0.3-0.3-0.8-0.5-1.3-0.5c-0.6,0-1,0.2-1.4,0.5c-0.3,0.4-0.6,0.9-0.7,1.5H163.4z M161.7,73
	c-0.6,0-1.3-0.2-1.9-0.4c-0.6-0.2-1.1-0.5-1.6-1c-0.4-0.4-0.7-0.9-1-1.5c-0.3-0.6-0.4-1.3-0.4-2c0-0.7,0.1-1.3,0.3-1.9
	c0.3-0.6,0.5-1.1,1-1.6c0.4-0.4,0.9-0.8,1.5-1c0.6-0.3,1.2-0.3,1.9-0.3c0.8,0,1.4,0.2,2,0.4c0.6,0.3,1,0.6,1.4,1.1
	c0.3,0.4,0.6,1,0.9,1.6c0.2,0.6,0.3,1.3,0.3,1.9l-0.1,0.3V69h-6.4c0.1,0.6,0.3,1,0.8,1.4c0.4,0.3,0.9,0.4,1.5,0.4
	c0.4,0,0.8-0.1,1.2-0.3c0.3-0.1,0.6-0.3,1-0.7l1.5,1.3c-0.4,0.6-1,1-1.6,1.3C163.3,72.8,162.6,73,161.7,73z M148.6,63.4h2.6v1.8
	c0.3-0.6,0.7-1.1,1.1-1.5c0.4-0.4,1-0.6,1.8-0.5V66h-0.1c-1,0-1.6,0.3-2.1,0.8c-0.5,0.5-0.8,1.4-0.8,2.5v3.4h-2.6V63.4z"/>
<path class="st0" d="M183.3,24.1h3.7V25h-1.3v3.6h-1V25h-1.4V24.1 M192.5,24.1v4.4h-1v-2.9l-1.1,1.9h-0.2l-1.1-1.9v2.9h-1v-4.4h1.1
	l1.2,1.9l1.1-1.9H192.5z"/>
<path class="st0" d="M69.5,37.2h-3.2v3.3h3.2V37.2z M66.3,28.9h3.2v3.2h-3.2V28.9z M74.6,20.4h-3.3v-3.2h3.3V20.4z M81,13.7h6.3
	v-3.5H81v10.1h-6.4v3.3h-5.5v2.3h-2.9v2.9h-3.5V34h-3.3v3.2h-2.2v3.3H55c-4.9,7.2-8.7,14.3-11.4,21.5c-6.2-8.8-12-13.9-17.4-15.7
	c-1.5-0.4-2.5-0.1-3.1,1.2c-0.6,1.3-0.1,2.9,1.7,4.9c5.5,6,10.5,14.5,15.1,25.3c0.7,1.7,2.3,2.7,4.8,2.9c2.3,0.2,3.9-0.7,4.6-2.6
	c3.4-8.9,7.3-16.5,11.8-23v-3.7h2.6V48h2.8v-3.9h3.2v-3.6h3.3v-3.3h2.6v-4h2.9v-2.7H81v-6.8h3.2v-3.3H88v-3.3h-3.7v3.3H81v3.3h-3.2
	v3.2h-3.2v-3.2h3.2v-10H81z"/>
<rect x="81" y="13.7" width="3.2" height="3.4"/>
<rect x="66.3" y="28.9" width="3.2" height="3.2"/>
<rect x="91" y="10.3" width="3.5" height="3.5"/>
<polyline points="91.1,10.3 91.1,6.8 87.6,6.8 87.6,10.3 "/>
<rect x="91" y="3.3" width="3.5" height="3.5"/>
</svg>
