<?xml version="1.0" encoding="UTF-8"?>
<svg xmlns="http://www.w3.org/2000/svg" xmlns:xlink="http://www.w3.org/1999/xlink" width="136px" height="40px" viewBox="0 0 135 40" version="1.1">
<g id="surface1">
<path style=" stroke:none;fill-rule:nonzero;fill:rgb(6.27451%,5.882353%,5.098039%);fill-opacity:1;" d="M 129.996094 40.25 L 5.003906 40.25 C 2.253906 40.25 0.00390625 37.988281 0.00390625 35.21875 L 0.00390625 5.03125 C 0.00390625 2.265625 2.253906 0 5.003906 0 L 129.996094 0 C 132.746094 0 134.996094 2.265625 134.996094 5.03125 L 134.996094 35.21875 C 134.996094 37.988281 132.746094 40.25 129.996094 40.25 "/>
<path style=" stroke:none;fill-rule:nonzero;fill:rgb(63.529412%,63.529412%,63.137255%);fill-opacity:1;" d="M 129.996094 0 L 5.003906 0 C 2.253906 0 0.00390625 2.265625 0.00390625 5.03125 L 0.00390625 35.21875 C 0.00390625 37.988281 2.253906 40.25 5.003906 40.25 L 129.996094 40.25 C 132.746094 40.25 134.996094 37.988281 134.996094 35.21875 L 134.996094 5.03125 C 134.996094 2.265625 132.746094 0 129.996094 0 Z M 129.996094 0.804688 C 132.3125 0.804688 134.199219 2.703125 134.199219 5.03125 L 134.199219 35.21875 C 134.199219 37.550781 132.3125 39.445312 129.996094 39.445312 L 5.003906 39.445312 C 2.6875 39.445312 0.804688 37.550781 0.804688 35.21875 L 0.804688 5.03125 C 0.804688 2.703125 2.6875 0.804688 5.003906 0.804688 L 129.996094 0.804688 "/>
<path style=" stroke:none;fill-rule:nonzero;fill:rgb(100%,100%,100%);fill-opacity:1;" d="M 106.933594 30.1875 L 108.800781 30.1875 L 108.800781 17.609375 L 106.933594 17.609375 Z M 123.742188 22.140625 L 121.601562 27.59375 L 121.539062 27.59375 L 119.320312 22.140625 L 117.308594 22.140625 L 120.640625 29.761719 L 118.738281 34.003906 L 120.6875 34.003906 L 125.816406 22.140625 Z M 113.160156 28.757812 C 112.550781 28.757812 111.695312 28.453125 111.695312 27.691406 C 111.695312 26.71875 112.757812 26.347656 113.675781 26.347656 C 114.496094 26.347656 114.882812 26.527344 115.378906 26.769531 C 115.234375 27.933594 114.238281 28.757812 113.160156 28.757812 Z M 113.386719 21.863281 C 112.035156 21.863281 110.636719 22.464844 110.054688 23.792969 L 111.710938 24.488281 C 112.066406 23.792969 112.726562 23.566406 113.417969 23.566406 C 114.382812 23.566406 115.363281 24.148438 115.378906 25.183594 L 115.378906 25.3125 C 115.042969 25.117188 114.316406 24.828125 113.433594 24.828125 C 111.648438 24.828125 109.832031 25.8125 109.832031 27.660156 C 109.832031 29.34375 111.292969 30.425781 112.933594 30.425781 C 114.1875 30.425781 114.882812 29.859375 115.3125 29.195312 L 115.378906 29.195312 L 115.378906 30.167969 L 117.179688 30.167969 L 117.179688 25.34375 C 117.179688 23.109375 115.523438 21.863281 113.386719 21.863281 Z M 101.851562 23.671875 L 99.199219 23.671875 L 99.199219 19.359375 L 101.851562 19.359375 C 103.25 19.359375 104.039062 20.523438 104.039062 21.515625 C 104.039062 22.492188 103.25 23.671875 101.851562 23.671875 Z M 101.804688 17.609375 L 97.335938 17.609375 L 97.335938 30.1875 L 99.199219 30.1875 L 99.199219 25.421875 L 101.804688 25.421875 C 103.875 25.421875 105.90625 23.917969 105.90625 21.515625 C 105.90625 19.117188 103.875 17.609375 101.804688 17.609375 Z M 77.425781 28.761719 C 76.136719 28.761719 75.058594 27.675781 75.058594 26.183594 C 75.058594 24.675781 76.136719 23.574219 77.425781 23.574219 C 78.699219 23.574219 79.695312 24.675781 79.695312 26.183594 C 79.695312 27.675781 78.699219 28.761719 77.425781 28.761719 Z M 79.566406 22.84375 L 79.503906 22.84375 C 79.085938 22.34375 78.277344 21.886719 77.265625 21.886719 C 75.136719 21.886719 73.1875 23.769531 73.1875 26.183594 C 73.1875 28.582031 75.136719 30.449219 77.265625 30.449219 C 78.277344 30.449219 79.085938 29.992188 79.503906 29.476562 L 79.566406 29.476562 L 79.566406 30.089844 C 79.566406 31.730469 78.699219 32.605469 77.296875 32.605469 C 76.152344 32.605469 75.445312 31.777344 75.152344 31.078125 L 73.527344 31.761719 C 73.992188 32.894531 75.234375 34.289062 77.296875 34.289062 C 79.488281 34.289062 81.339844 32.992188 81.339844 29.832031 L 81.339844 22.148438 L 79.566406 22.148438 Z M 82.628906 30.1875 L 84.496094 30.1875 L 84.496094 17.609375 L 82.628906 17.609375 Z M 87.253906 26.039062 C 87.203125 24.382812 88.527344 23.542969 89.476562 23.542969 C 90.21875 23.542969 90.84375 23.914062 91.054688 24.449219 Z M 93.050781 24.613281 C 92.699219 23.65625 91.617188 21.886719 89.410156 21.886719 C 87.21875 21.886719 85.398438 23.621094 85.398438 26.167969 C 85.398438 28.566406 87.203125 30.449219 89.621094 30.449219 C 91.570312 30.449219 92.699219 29.25 93.164062 28.550781 L 91.714844 27.578125 C 91.230469 28.292969 90.570312 28.761719 89.621094 28.761719 C 88.671875 28.761719 87.992188 28.324219 87.558594 27.464844 L 93.246094 25.097656 Z M 47.746094 23.203125 L 47.746094 25.015625 L 52.0625 25.015625 C 51.933594 26.039062 51.59375 26.785156 51.078125 27.304688 C 50.449219 27.933594 49.46875 28.632812 47.746094 28.632812 C 45.085938 28.632812 43.007812 26.476562 43.007812 23.800781 C 43.007812 21.125 45.085938 18.96875 47.746094 18.96875 C 49.179688 18.96875 50.226562 19.539062 51 20.265625 L 52.273438 18.984375 C 51.191406 17.949219 49.757812 17.15625 47.746094 17.15625 C 44.101562 17.15625 41.042969 20.136719 41.042969 23.800781 C 41.042969 27.464844 44.101562 30.449219 47.746094 30.449219 C 49.710938 30.449219 51.191406 29.800781 52.351562 28.582031 C 53.542969 27.382812 53.914062 25.699219 53.914062 24.335938 C 53.914062 23.914062 53.882812 23.527344 53.816406 23.203125 Z M 58.824219 28.761719 C 57.535156 28.761719 56.421875 27.691406 56.421875 26.167969 C 56.421875 24.628906 57.535156 23.574219 58.824219 23.574219 C 60.113281 23.574219 61.222656 24.628906 61.222656 26.167969 C 61.222656 27.691406 60.113281 28.761719 58.824219 28.761719 Z M 58.824219 21.886719 C 56.472656 21.886719 54.554688 23.6875 54.554688 26.167969 C 54.554688 28.632812 56.472656 30.449219 58.824219 30.449219 C 61.175781 30.449219 63.09375 28.632812 63.09375 26.167969 C 63.09375 23.6875 61.175781 21.886719 58.824219 21.886719 Z M 68.136719 28.761719 C 66.847656 28.761719 65.738281 27.691406 65.738281 26.167969 C 65.738281 24.628906 66.847656 23.574219 68.136719 23.574219 C 69.425781 23.574219 70.535156 24.628906 70.535156 26.167969 C 70.535156 27.691406 69.425781 28.761719 68.136719 28.761719 Z M 68.136719 21.886719 C 65.785156 21.886719 63.867188 23.6875 63.867188 26.167969 C 63.867188 28.632812 65.785156 30.449219 68.136719 30.449219 C 70.488281 30.449219 72.40625 28.632812 72.40625 26.167969 C 72.40625 23.6875 70.488281 21.886719 68.136719 21.886719 "/>
<path style=" stroke:none;fill-rule:nonzero;fill:rgb(92.156863%,19.215686%,19.215686%);fill-opacity:1;" d="M 20.714844 19.546875 L 10.070312 30.917969 C 10.070312 30.917969 10.070312 30.921875 10.074219 30.921875 C 10.398438 32.160156 11.519531 33.066406 12.851562 33.066406 C 13.382812 33.066406 13.878906 32.921875 14.308594 32.667969 L 14.34375 32.648438 L 26.328125 25.691406 L 20.71875 19.546875 "/>
<path style=" stroke:none;fill-rule:nonzero;fill:rgb(96.470588%,71.372549%,4.313725%);fill-opacity:1;" d="M 31.488281 17.609375 L 31.476562 17.605469 L 26.304688 14.585938 L 20.476562 19.804688 L 26.324219 25.691406 L 31.46875 22.703125 C 32.371094 22.210938 32.984375 21.253906 32.984375 20.152344 C 32.984375 19.054688 32.378906 18.101562 31.488281 17.609375 "/>
<path style=" stroke:none;fill-rule:nonzero;fill:rgb(34.117647%,47.058824%,77.254902%);fill-opacity:1;" d="M 10.070312 9.335938 C 10.003906 9.574219 9.972656 9.820312 9.972656 10.082031 L 9.972656 30.171875 C 9.972656 30.429688 10.003906 30.679688 10.070312 30.917969 L 21.082031 19.835938 L 10.070312 9.335938 "/>
<path style=" stroke:none;fill-rule:nonzero;fill:rgb(23.137255%,67.843137%,28.627451%);fill-opacity:1;" d="M 20.796875 20.125 L 26.304688 14.582031 L 14.335938 7.601562 C 13.902344 7.335938 13.394531 7.1875 12.847656 7.1875 C 11.519531 7.1875 10.398438 8.097656 10.070312 9.332031 C 10.070312 9.335938 10.070312 9.335938 10.070312 9.335938 L 20.796875 20.128906 "/>
<path style="fill-rule:nonzero;fill:rgb(100%,100%,100%);fill-opacity:1;stroke-width:0.26666;stroke-linecap:butt;stroke-linejoin:miter;stroke:rgb(100%,100%,100%);stroke-opacity:1;stroke-miterlimit:10;" d="M 63.192708 13.042969 L 59.302083 13.042969 L 59.302083 14.005664 L 62.21875 14.005664 C 62.140625 14.792383 61.828125 15.408301 61.296875 15.853418 C 60.770833 16.303711 60.098958 16.52627 59.302083 16.52627 C 58.432292 16.52627 57.692708 16.220898 57.083333 15.620508 C 56.489583 15.00459 56.1875 14.238574 56.1875 13.322461 C 56.1875 12.401172 56.489583 11.640332 57.083333 11.024414 C 57.692708 10.418848 58.432292 10.118652 59.302083 10.118652 C 59.75 10.118652 60.177083 10.196289 60.567708 10.361914 C 60.963542 10.532715 61.276042 10.765625 61.520833 11.070996 L 62.260417 10.330859 C 61.927083 9.947852 61.5 9.658008 60.973958 9.445801 C 60.447917 9.233594 59.895833 9.130078 59.302083 9.130078 C 58.140625 9.130078 57.151042 9.533789 56.34375 10.341211 C 55.536458 11.148633 55.135417 12.142383 55.135417 13.322461 C 55.135417 14.497363 55.536458 15.496289 56.34375 16.303711 C 57.151042 17.111133 58.140625 17.514844 59.302083 17.514844 C 60.526042 17.514844 61.5 17.121484 62.25 16.324414 C 62.911458 15.661914 63.25 14.766504 63.25 13.648535 C 63.25 13.457031 63.223958 13.255176 63.192708 13.042969 Z M 64.697917 9.31123 L 64.697917 17.333691 L 69.385417 17.333691 L 69.385417 16.350293 L 65.729167 16.350293 L 65.729167 13.803809 L 69.026042 13.803809 L 69.026042 12.841113 L 65.729167 12.841113 L 65.729167 10.294629 L 69.385417 10.294629 L 69.385417 9.31123 Z M 75.953125 10.294629 L 75.953125 9.31123 L 70.442708 9.31123 L 70.442708 10.294629 L 72.682292 10.294629 L 72.682292 17.333691 L 73.713542 17.333691 L 73.713542 10.294629 Z M 80.947917 9.31123 L 79.916667 9.31123 L 79.916667 17.333691 L 80.947917 17.333691 Z M 87.755208 10.294629 L 87.755208 9.31123 L 82.239583 9.31123 L 82.239583 10.294629 L 84.479167 10.294629 L 84.479167 17.333691 L 85.510417 17.333691 L 85.510417 10.294629 Z M 98.161458 10.351562 C 97.364583 9.533789 96.390625 9.130078 95.223958 9.130078 C 94.057292 9.130078 93.083333 9.533789 92.286458 10.341211 C 91.489583 11.138281 91.098958 12.132031 91.098958 13.322461 C 91.098958 14.507715 91.489583 15.506641 92.286458 16.303711 C 93.083333 17.111133 94.057292 17.514844 95.223958 17.514844 C 96.380208 17.514844 97.364583 17.111133 98.161458 16.303711 C 98.958333 15.506641 99.348958 14.507715 99.348958 13.322461 C 99.348958 12.142383 98.953125 11.148633 98.161458 10.351562 Z M 93.026042 11.024414 C 93.619792 10.418848 94.348958 10.118652 95.223958 10.118652 C 96.098958 10.118652 96.828125 10.418848 97.411458 11.024414 C 98.005208 11.619629 98.296875 12.39082 98.296875 13.322461 C 98.296875 14.254102 98.005208 15.025293 97.411458 15.620508 C 96.828125 16.220898 96.098958 16.52627 95.223958 16.52627 C 94.348958 16.52627 93.619792 16.220898 93.026042 15.620508 C 92.447917 15.014941 92.15625 14.254102 92.15625 13.322461 C 92.15625 12.39082 92.447917 11.62998 93.026042 11.024414 Z M 101.796875 12.333887 L 101.755208 10.786328 L 101.796875 10.786328 L 105.875 17.333691 L 106.953125 17.333691 L 106.953125 9.31123 L 105.921875 9.31123 L 105.921875 14.005664 L 105.963542 15.553223 L 105.921875 15.553223 L 102.020833 9.31123 L 100.765625 9.31123 L 100.765625 17.333691 L 101.796875 17.333691 Z M 101.796875 12.333887 " transform="matrix(0.75,0,0,0.754717,0,-0.000000000000002681)"/>
</g>
</svg>
