<svg width="220" height="20" viewBox="0 0 220 20" fill="none" xmlns="http://www.w3.org/2000/svg">
<path d="M23.2786 5.12857C23.8786 5.02143 24.7 4.94286 25.7929 4.94286C27 4.94286 27.8929 5.16428 28.5 5.67143C29.0714 6.13571 29.4143 6.89286 29.4143 7.75C29.4143 8.67857 29.1214 9.42143 28.6 9.92857C27.9357 10.5714 26.9214 10.8714 25.8571 10.8714C25.6286 10.8714 25.4214 10.8571 25.2571 10.8357V14.15H23.2929V5.12857H23.2786ZM25.2429 9.27857C25.3929 9.30714 25.5714 9.32143 25.8143 9.32143C26.85 9.32143 27.4428 8.74286 27.4428 7.83571C27.4428 7.00714 26.9428 6.46428 25.9643 6.46428C25.6286 6.46428 25.3786 6.49285 25.2429 6.53571V9.27857Z" fill="#99B1BF"/>
<path d="M30.9857 5.13571C31.6214 5.02143 32.5214 4.94286 33.4929 4.94286C34.7357 4.94286 35.6643 5.12857 36.3 5.65714C36.85 6.11428 37.1071 6.74286 37.1071 7.57143C37.1071 8.67857 36.3857 9.50714 35.5571 9.82857V9.86428C36.1857 10.1214 36.5286 10.7143 36.7429 11.6C36.9929 12.6286 37.2643 13.8 37.4357 14.15H35.4C35.2643 13.8857 35.0429 13.1 34.8214 12C34.6 10.8571 34.2429 10.55 33.4643 10.5429H32.9571V14.15H30.9929V5.13571H30.9857ZM32.95 9.08571H33.6143C34.5643 9.08571 35.1286 8.52857 35.1286 7.73571C35.1286 6.94286 34.6357 6.45 33.7357 6.44286C33.3429 6.44286 33.0857 6.47143 32.9571 6.50714V9.08571H32.95Z" fill="#99B1BF"/>
<path d="M40.8357 5.00714V14.15H38.8572V5.00714H40.8357Z" fill="#99B1BF"/>
<path d="M44.7928 14.15L42.1285 5.00714H44.3071L45.2785 8.9C45.55 9.95714 45.8 11.0143 46 12.1357H46.0285C46.2285 11.0429 46.4785 9.95 46.7428 8.91428L47.7428 5.00714H49.8714L47.0928 14.15H44.8071H44.7928Z" fill="#99B1BF"/>
<path d="M52.4429 11.8786L51.8715 14.15H49.8572L52.4072 5.00714H54.9429L57.4715 14.15H55.3929L54.7857 11.8786H52.45H52.4429ZM54.5143 10.3857L54.0215 8.45C53.8857 7.90714 53.7357 7.15 53.6072 6.59285H53.5786C53.4572 7.15 53.3215 7.92143 53.1857 8.45L52.7 10.3857H54.5072H54.5143Z" fill="#99B1BF"/>
<path d="M64.6643 13.9357C64.3286 14.1 63.5714 14.2786 62.6143 14.2786C59.6929 14.2786 58.2214 12.3143 58.2214 9.71428C58.2214 6.5 60.3571 4.88571 62.8214 4.88571C63.7643 4.88571 64.4643 5.07143 64.7714 5.24286L64.3857 6.83571C64.0357 6.67857 63.5571 6.54286 62.9214 6.54286C61.4786 6.54286 60.3071 7.5 60.3071 9.6C60.3071 11.5357 61.3143 12.6 62.9286 12.6C63.4643 12.6 64.0429 12.4929 64.3929 12.35L64.6643 13.9357Z" fill="#99B1BF"/>
<path d="M68.2786 14.15V10.4786L65.65 5.00714H67.8786L68.7143 7.2C68.9643 7.83571 69.1572 8.38571 69.35 9.00714H69.3786C69.5572 8.41428 69.7572 7.83571 69.9929 7.18571L70.8 5.00714H72.9857L70.2572 10.4071V14.15H68.2786Z" fill="#99B1BF"/>
<path d="M82.4715 14.15C82.2929 13.9571 82.1215 13.7643 81.9215 13.5143C81.3572 13.9786 80.5572 14.2857 79.5715 14.2857C77.5429 14.2857 76.5786 13.0286 76.5786 11.7071C76.5786 10.5286 77.2215 9.67143 78.2286 9.11428V9.07143C77.8072 8.57143 77.5358 7.89286 77.5358 7.24286C77.5358 6.05714 78.4358 4.86428 80.15 4.86428C81.4929 4.86428 82.4858 5.69286 82.4858 6.97857C82.4858 7.87857 82.0286 8.65714 80.7429 9.37143V9.42857C81.2215 10.0143 81.7929 10.75 82.2072 11.2C82.5643 10.6214 82.7715 9.77857 82.8715 9H84.6072C84.4 10.35 83.9572 11.55 83.2 12.4C83.6572 12.9286 84.1643 13.5286 84.7143 14.15H82.4572H82.4715ZM81.0286 12.3929C80.4929 11.8214 79.7715 10.95 79.0929 10.1357C78.75 10.4071 78.4358 10.8143 78.4358 11.4C78.4358 12.1857 78.9858 12.8429 79.8643 12.8429C80.3715 12.8429 80.7715 12.65 81.0286 12.3929ZM79.3 7.08571C79.3 7.57143 79.4929 7.97143 79.8715 8.42143C80.5072 7.97143 80.8072 7.57857 80.8072 7.05C80.8072 6.62143 80.5929 6.13571 80.0786 6.13571C79.5643 6.13571 79.3072 6.58571 79.3072 7.09286L79.3 7.08571Z" fill="#99B1BF"/>
<path d="M88.8643 12.1071C89.3572 12.3786 90.15 12.6143 90.9214 12.6143C91.8357 12.6143 92.3143 12.2071 92.3143 11.6071C92.3143 11.0071 91.8857 10.6857 90.8857 10.2643C89.4429 9.65714 88.6 8.78571 88.6 7.6C88.6 6.06428 89.8071 4.87143 91.8857 4.87143C92.8 4.87143 93.4929 5.06428 93.95 5.29286L93.5429 6.91428C93.2143 6.74286 92.6357 6.51428 91.8572 6.51428C91 6.51428 90.5857 6.94286 90.5857 7.41428C90.5857 7.98571 91.0214 8.25 92.15 8.74286C93.65 9.38571 94.3071 10.25 94.3071 11.4429C94.3071 13.0143 93.1214 14.2643 90.8214 14.2643C89.8714 14.2643 88.9357 14.0143 88.4857 13.7571L88.8571 12.1L88.8643 12.1071Z" fill="#99B1BF"/>
<path d="M100.9 10.2357H97.9214V12.5H101.257V14.15H95.9357V5.00714H101.071V6.65714H97.9143V8.62143H100.893V10.2357H100.9Z" fill="#99B1BF"/>
<path d="M108.95 13.9357C108.614 14.1 107.857 14.2786 106.9 14.2786C103.979 14.2786 102.507 12.3143 102.507 9.71428C102.507 6.5 104.643 4.88571 107.107 4.88571C108.05 4.88571 108.75 5.07143 109.057 5.24286L108.671 6.83571C108.321 6.67857 107.843 6.54286 107.207 6.54286C105.764 6.54286 104.593 7.5 104.593 9.6C104.593 11.5357 105.6 12.6 107.214 12.6C107.75 12.6 108.329 12.4929 108.679 12.35L108.95 13.9357Z" fill="#99B1BF"/>
<path d="M112.479 5.00714V10.4714C112.479 11.9786 113.021 12.6714 113.9 12.6714C114.779 12.6714 115.343 12.0286 115.343 10.4714V5.00714H117.329V10.2857C117.329 12.9643 116.064 14.2857 113.857 14.2857C111.65 14.2857 110.5 12.9929 110.5 10.2714V5.00714H112.486H112.479Z" fill="#99B1BF"/>
<path d="M119.357 5.13571C119.993 5.02143 120.893 4.94286 121.864 4.94286C123.107 4.94286 124.036 5.12857 124.664 5.65714C125.214 6.11428 125.471 6.74286 125.471 7.57143C125.471 8.67857 124.75 9.50714 123.921 9.82857V9.86428C124.55 10.1214 124.893 10.7143 125.107 11.6C125.357 12.6286 125.629 13.8 125.8 14.15H123.764C123.629 13.8857 123.407 13.1 123.186 12C122.957 10.8571 122.607 10.55 121.829 10.5429H121.321V14.15H119.357V5.13571ZM121.321 9.08571H121.986C122.936 9.08571 123.5 8.52857 123.5 7.73571C123.5 6.94286 123.007 6.45 122.107 6.44286C121.714 6.44286 121.457 6.47143 121.329 6.50714V9.08571H121.321Z" fill="#99B1BF"/>
<path d="M129.214 5.00714V14.15H127.236V5.00714H129.214Z" fill="#99B1BF"/>
<path d="M132.807 6.71428H130.593V5.00714H137.029V6.71428H134.793V14.15H132.807V6.71428Z" fill="#99B1BF"/>
<path d="M140.386 14.15V10.4786L137.757 5.00714H139.986L140.821 7.2C141.071 7.83571 141.264 8.38571 141.457 9.00714H141.486C141.664 8.41428 141.864 7.83571 142.1 7.18571L142.907 5.00714H145.093L142.364 10.4071V14.15H140.386Z" fill="#99B1BF"/>
<path d="M149.279 5.12143C149.8 5.01428 150.471 4.94286 151.321 4.94286C152.386 4.94286 153.2 5.19286 153.721 5.67857C154.2 6.11428 154.486 6.77857 154.486 7.58571C154.486 8.39285 154.25 9.04285 153.821 9.51428C153.229 10.1857 152.271 10.5214 151.214 10.5214C150.907 10.5214 150.643 10.5143 150.407 10.4571V14.15H149.271V5.12143H149.279ZM150.414 9.52143C150.636 9.57857 150.9 9.6 151.221 9.6C152.529 9.6 153.343 8.90714 153.343 7.64285C153.343 6.51428 152.621 5.85 151.364 5.85C150.929 5.85 150.6 5.89286 150.407 5.93571V9.52143H150.414Z" fill="#99B1BF"/>
<path d="M156.279 5.13571C156.829 5.01428 157.593 4.94286 158.321 4.94286C159.471 4.94286 160.25 5.16428 160.793 5.66428C161.243 6.07857 161.486 6.7 161.486 7.41428C161.486 8.60714 160.786 9.39285 159.836 9.75V9.77857C160.529 10.0143 160.929 10.6643 161.143 11.6929C161.414 12.9643 161.621 13.8071 161.793 14.1429H160.614C160.479 13.8786 160.279 13.0714 160.05 11.9286C159.8 10.6786 159.336 10.1929 158.321 10.1714H157.414V14.1429H156.279V5.13571ZM157.414 9.31428H158.393C159.579 9.31428 160.336 8.61428 160.336 7.55C160.336 6.4 159.607 5.84286 158.4 5.83571C157.936 5.83571 157.6 5.87857 157.414 5.92143V9.30714V9.31428Z" fill="#99B1BF"/>
<path d="M170.329 9.49286C170.329 12.7143 168.636 14.2857 166.564 14.2857C164.493 14.2857 162.929 12.4857 162.929 9.62857C162.929 6.77143 164.514 4.86428 166.7 4.86428C168.886 4.86428 170.336 6.71428 170.336 9.49286H170.329ZM164.121 9.61428C164.121 11.55 164.971 13.3357 166.629 13.3357C168.286 13.3357 169.129 11.5286 169.129 9.53571C169.129 7.75 168.371 5.80714 166.636 5.80714C164.9 5.80714 164.121 7.65 164.121 9.60714V9.61428Z" fill="#99B1BF"/>
<path d="M173.307 5.98571H170.857V5.00714H176.914V5.98571H174.45V14.15H173.307V5.98571Z" fill="#99B1BF"/>
<path d="M182.564 9.85H179.393V13.1929H182.95V14.15H178.25V5.00714H182.757V5.97143H179.393V8.9H182.564V9.85Z" fill="#99B1BF"/>
<path d="M190.357 13.9C189.971 14.0929 189.221 14.2786 188.271 14.2786C185.936 14.2786 184.2 12.7071 184.2 9.67143C184.2 6.63571 186.093 4.88571 188.514 4.88571C189.471 4.88571 190.1 5.08571 190.371 5.23571L190.1 6.17857C189.721 6 189.214 5.85714 188.536 5.85714C186.743 5.85714 185.4 7.10714 185.4 9.62143C185.4 12.1357 186.614 13.3 188.5 13.3C189.129 13.3 189.743 13.1714 190.143 12.9786L190.357 13.9Z" fill="#99B1BF"/>
<path d="M193.893 5.98571H191.443V5.00714H197.5V5.98571H195.036V14.15H193.893V5.98571Z" fill="#99B1BF"/>
<path d="M199.979 5.00714V14.15H198.836V5.00714H199.979Z" fill="#99B1BF"/>
<path d="M209.157 9.49286C209.157 12.7143 207.464 14.2857 205.393 14.2857C203.321 14.2857 201.757 12.4857 201.757 9.62857C201.757 6.77143 203.343 4.86428 205.529 4.86428C207.714 4.86428 209.164 6.71428 209.164 9.49286H209.157ZM202.95 9.61428C202.95 11.55 203.8 13.3357 205.457 13.3357C207.114 13.3357 207.957 11.5286 207.957 9.53571C207.957 7.75 207.2 5.80714 205.464 5.80714C203.729 5.80714 202.95 7.65 202.95 9.60714V9.61428Z" fill="#99B1BF"/>
<path d="M210.929 14.15V5.00714H212.136L214.693 9.52857C215.279 10.5714 215.793 11.6071 216.186 12.5714H216.214C216.114 11.2786 216.086 10.1429 216.086 8.67143V5.00714H217.15V14.15H216.014L213.457 9.58571C212.907 8.59286 212.357 7.55 211.943 6.51428H211.907C211.979 7.7 212 8.82143 212 10.4643V14.15H210.936H210.929Z" fill="#99B1BF"/>
<path d="M15.9714 3.14286C14.6857 3.10714 13.6214 2.15 13.4571 0.871429L13.3643 0.185714L12.6786 0.142857C11.1357 0.0428571 9.69286 0 8.39286 0C7.09286 0 5.65 0.05 4.10714 0.142857L3.42143 0.185714L3.32857 0.871429C3.15714 2.15 2.1 3.1 0.814286 3.14286L0 3.16429V9.65C0 14.8929 4.17857 18.3714 8.09286 19.8786L8.39286 19.9929L8.69286 19.8786C12.6071 18.3714 16.7857 14.9 16.7857 9.65V3.16429L15.9714 3.14286ZM15.1071 9.65C15.1071 11.0286 14.6143 15.6571 8.39286 18.1929C2.17143 15.6571 1.67857 11.0286 1.67857 9.65V4.72143C3.18571 4.38571 4.39286 3.27143 4.84286 1.78571C6.11429 1.71429 7.30714 1.67857 8.39286 1.67857C9.47857 1.67857 10.6714 1.71429 11.9429 1.78571C12.3929 3.27143 13.6 4.38571 15.1071 4.72143V9.65714V9.65Z" fill="#99B1BF"/>
<path d="M7.82139 11.5643L5.66425 9.1L4.4071 10.2071L8.12139 14.4571L12.4785 6.70714L11.0214 5.88571L7.82139 11.5643Z" fill="#99B1BF"/>
</svg>
