<svg width="48" height="48" viewBox="0 0 48 48" fill="none" xmlns="http://www.w3.org/2000/svg">
<path d="M7.32422 13.4539L26.9228 13.4539V18.0262L7.32422 18.0261V13.4539Z" fill="#FF8377"/>
<path d="M34.4865 13.4539L39.3299 13.4539V18.0261H34.4865V13.4539Z" fill="#FF8377"/>
<path d="M32.6319 29.0103C32.106 29.5433 31.572 30.0817 30.9922 30.6634L33.2475 32.9644C35.026 31.2326 36.1759 30.1072 37.2367 29.0103L32.6319 29.0103Z" fill="#E4EBEB"/>
<path fill-rule="evenodd" clip-rule="evenodd" d="M27.043 34.5948C27.6873 33.9565 28.2695 33.3789 28.8042 32.8473L30.9902 35.1629C30.4961 35.6447 29.9643 36.1637 29.3897 36.7257C29.1478 36.9623 28.9853 37.3102 28.8841 37.5655C28.783 37.8208 28.8191 38.9027 28.8191 38.9027C28.7732 41.0358 27.0068 42.7277 24.8738 42.6819C22.7408 42.636 21.0488 40.8696 21.0947 38.7366C21.1405 36.6035 22.9069 34.9116 25.0399 34.9574L26.1633 34.9816C26.5796 34.9906 26.8996 34.7369 27.043 34.5948ZM25.0223 40.4422C25.8949 40.4422 26.6024 39.7348 26.6024 38.8621C26.6024 37.9895 25.8949 37.2821 25.0223 37.2821C24.1496 37.2821 23.4422 37.9895 23.4422 38.8621C23.4422 39.7348 24.1496 40.4422 25.0223 40.4422Z" fill="#E4EBEB"/>
<path d="M29.3901 36.7257L29.9145 37.2619H29.9145L29.3901 36.7257ZM28.8845 37.5655L29.5818 37.8417L29.5818 37.8417L28.8845 37.5655ZM26.1636 34.9816L26.1475 35.7314L26.1636 34.9816ZM27.0434 34.5948L26.5156 34.062L27.0434 34.5948ZM28.8194 38.9027L29.5693 38.9189L29.5697 38.8983L29.569 38.8777L28.8194 38.9027ZM24.8742 42.6819L24.8903 41.932L24.8742 42.6819ZM21.095 38.7366L21.8449 38.7527L21.095 38.7366ZM25.0403 34.9575L25.0564 34.2076L25.0403 34.9575ZM29.3482 33.3644C29.642 33.0723 29.6433 32.5975 29.3513 32.3037C29.0593 32.01 28.5844 32.0086 28.2906 32.3007L29.3482 33.3644ZM32.8796 32.2769C32.5727 32.5551 32.5495 33.0294 32.8277 33.3363C33.1059 33.6432 33.5802 33.6664 33.8871 33.3882L32.8796 32.2769ZM31.5012 35.7175C31.7978 35.4284 31.8039 34.9535 31.5148 34.6569C31.2256 34.3603 30.7508 34.3542 30.4542 34.6434L31.5012 35.7175ZM30.7527 29.8435C30.4429 30.1183 30.4145 30.5924 30.6893 30.9022C30.9642 31.2121 31.4382 31.2405 31.7481 30.9656L30.7527 29.8435ZM32.8256 30.0098C33.1355 29.735 33.1639 29.2609 32.889 28.9511C32.6141 28.6412 32.1401 28.6128 31.8302 28.8877L32.8256 30.0098ZM39.33 10.2674H40.08H39.33ZM39.33 28.0714H38.58H39.33ZM37.9504 29.457V30.207V29.457ZM8.70376 29.457V28.707V29.457ZM7.32422 28.0714H8.07422H7.32422ZM7.32422 18.0263H6.57422H7.32422ZM7.32422 10.2674H6.57422H7.32422ZM8.70376 8.88185V9.63185H8.70376L8.70376 8.88185ZM26.7563 9.63184C27.1705 9.63184 27.5063 9.29605 27.5063 8.88184C27.5063 8.46762 27.1705 8.13184 26.7563 8.13184V9.63184ZM34.7577 8.13185C34.3435 8.13185 34.0077 8.46764 34.0077 8.88185C34.0077 9.29606 34.3435 9.63185 34.7577 9.63185V8.13185ZM32.4377 28.707C32.0235 28.707 31.6877 29.0427 31.6877 29.457C31.6877 29.8712 32.0235 30.207 32.4377 30.207V28.707ZM19.8979 30.207C20.3121 30.207 20.6479 29.8712 20.6479 29.457C20.6479 29.0427 20.3121 28.707 19.8979 28.707V30.207ZM26.7563 14.2041C27.1705 14.2041 27.5063 13.8683 27.5063 13.4541C27.5063 13.0399 27.1705 12.7041 26.7563 12.7041V14.2041ZM34.7577 12.7041C34.3435 12.7041 34.0077 13.0399 34.0077 13.4541C34.0077 13.8683 34.3435 14.2041 34.7577 14.2041V12.7041ZM34.7577 17.2763C34.3435 17.2763 34.0077 17.6121 34.0077 18.0263C34.0077 18.4406 34.3435 18.7763 34.7577 18.7763V17.2763ZM10.7534 22.9916C10.3392 22.9916 10.0034 23.3274 10.0034 23.7416C10.0034 24.1559 10.3392 24.4916 10.7534 24.4916V22.9916ZM14.2214 24.4916C14.6357 24.4916 14.9714 24.1559 14.9714 23.7416C14.9714 23.3274 14.6357 22.9916 14.2214 22.9916V24.4916ZM17.0394 22.9916C16.6252 22.9916 16.2894 23.3274 16.2894 23.7416C16.2894 24.1559 16.6252 24.4916 17.0394 24.4916V22.9916ZM18.2952 24.4916C18.7094 24.4916 19.0452 24.1559 19.0452 23.7416C19.0452 23.3274 18.7094 22.9916 18.2952 22.9916V24.4916ZM26.7563 18.7763C27.1705 18.7763 27.5063 18.4405 27.5063 18.0263C27.5063 17.6121 27.1705 17.2763 26.7563 17.2763V18.7763ZM23.5042 22.0149L24.0621 21.5137L23.5061 20.8947L22.9479 21.5118L23.5042 22.0149ZM23.7076 27.1175L24.2792 26.6319L23.7076 27.1175ZM32.4687 36.5568L31.9231 37.0715L32.4687 36.5568ZM32.94 37.4163L32.2322 37.6642V37.6642L32.94 37.4163ZM35.7627 34.944L35.7486 35.6938L35.7627 34.944ZM34.8992 34.5221L34.3503 35.0332L34.8992 34.5221ZM32.9512 38.755L32.2033 38.6999L32.2018 38.7204L32.2014 38.741L32.9512 38.755ZM36.7412 42.6899L36.7272 43.4397L36.7412 42.6899ZM40.6761 38.8999L41.4259 38.9139L40.6761 38.8999ZM36.8861 34.965L36.9001 34.2152L36.8861 34.965ZM28.8657 36.1895C28.5037 36.5435 28.2942 37.0192 28.1872 37.2893L29.5818 37.8417C29.6253 37.7318 29.6772 37.6147 29.7382 37.5063C29.8006 37.3954 29.8612 37.3141 29.9145 37.2619L28.8657 36.1895ZM26.1475 35.7314C26.8714 35.747 27.3798 35.3173 27.5712 35.1276L26.5156 34.062C26.4798 34.0975 26.4215 34.1465 26.3527 34.1832C26.2856 34.219 26.2286 34.2328 26.1797 34.2318L26.1475 35.7314ZM28.0696 38.8866C28.0326 40.6055 26.6092 41.969 24.8903 41.932L24.858 43.4317C27.4052 43.4865 29.5145 41.466 29.5693 38.9189L28.0696 38.8866ZM24.8903 41.932C23.1714 41.8951 21.8079 40.4716 21.8449 38.7527L20.3452 38.7205C20.2904 41.2676 22.3109 43.3769 24.858 43.4317L24.8903 41.932ZM21.8449 38.7527C21.8818 37.0338 23.3053 35.6703 25.0242 35.7073L25.0564 34.2076C22.5093 34.1529 20.4 36.1733 20.3452 38.7205L21.8449 38.7527ZM28.1872 37.2893C28.1147 37.4723 28.094 37.6959 28.084 37.8231C28.0713 37.9843 28.066 38.1621 28.0641 38.3209C28.0622 38.4815 28.0636 38.6324 28.0655 38.7425C28.0664 38.7978 28.0675 38.8434 28.0683 38.8754C28.0688 38.8914 28.0691 38.9041 28.0694 38.913C28.0695 38.9174 28.0696 38.9209 28.0697 38.9234C28.0698 38.9246 28.0698 38.9256 28.0698 38.9263C28.0698 38.9267 28.0698 38.927 28.0698 38.9272C28.0698 38.9273 28.0699 38.9274 28.0699 38.9275C28.0699 38.9276 28.0699 38.9276 28.0699 38.9276C28.0699 38.9277 28.0699 38.9277 28.8194 38.9027C29.569 38.8777 29.569 38.8778 29.569 38.8778C29.569 38.8778 29.569 38.8778 29.569 38.8778C29.569 38.8779 29.569 38.8779 29.569 38.8778C29.569 38.8778 29.569 38.8777 29.569 38.8776C29.569 38.8772 29.569 38.8767 29.569 38.8759C29.5689 38.8742 29.5688 38.8716 29.5687 38.868C29.5685 38.8609 29.5682 38.8501 29.5678 38.8361C29.5671 38.808 29.5661 38.767 29.5653 38.7169C29.5636 38.6161 29.5623 38.4806 29.564 38.3388C29.5657 38.1952 29.5704 38.0547 29.5793 37.9412C29.591 37.7937 29.6037 37.7864 29.5818 37.8417L28.1872 37.2893ZM26.1797 34.2318L25.0564 34.2076L25.0242 35.7073L26.1475 35.7314L26.1797 34.2318ZM27.5712 35.1276C28.2217 34.4832 28.809 33.9005 29.3482 33.3644L28.2906 32.3007C27.7522 32.836 27.1656 33.4181 26.5156 34.062L27.5712 35.1276ZM36.612 28.8931L32.8796 32.2769L33.8871 33.3882L37.6195 30.0044L36.612 28.8931ZM30.4542 34.6434C29.9125 35.1714 29.5124 35.5571 28.8657 36.1895L29.9145 37.2619C30.5626 36.6281 30.9508 36.254 31.5012 35.7175L30.4542 34.6434ZM31.7481 30.9656L32.8256 30.0098L31.8302 28.8877L30.7527 29.8435L31.7481 30.9656ZM25.933 38.8817C25.9222 39.3844 25.5059 39.7832 25.0032 39.7724L24.971 41.272C26.3019 41.3006 27.4041 40.2449 27.4327 38.914L25.933 38.8817ZM25.0032 39.7724C24.5005 39.7615 24.1018 39.3453 24.1126 38.8426L22.6129 38.8103C22.5843 40.1412 23.64 41.2434 24.971 41.272L25.0032 39.7724ZM24.1126 38.8426C24.1234 38.3399 24.5397 37.9411 25.0424 37.9519L25.0746 36.4523C23.7437 36.4236 22.6416 37.4794 22.6129 38.8103L24.1126 38.8426ZM25.0424 37.9519C25.5451 37.9627 25.9438 38.379 25.933 38.8817L27.4327 38.914C27.4613 37.583 26.4056 36.4809 25.0746 36.4523L25.0424 37.9519ZM37.9504 9.63185C38.295 9.63185 38.58 9.91332 38.58 10.2674H40.08C40.08 9.09102 39.1296 8.13185 37.9504 8.13185V9.63185ZM38.58 10.2674V13.4541H40.08V10.2674H38.58ZM38.58 13.4541V18.0263H40.08V13.4541H38.58ZM38.58 18.0263V28.0714H40.08V18.0263H38.58ZM38.58 28.0714C38.58 28.4255 38.295 28.707 37.9504 28.707V30.207C39.1296 30.207 40.08 29.2478 40.08 28.0714H38.58ZM8.70376 28.707C8.35913 28.707 8.07422 28.4255 8.07422 28.0714H6.57422C6.57422 29.2478 7.52459 30.207 8.70376 30.207V28.707ZM8.07422 28.0714L8.07422 18.0263H6.57422L6.57422 28.0714H8.07422ZM8.07422 18.0263L8.07422 13.4541H6.57422L6.57422 18.0263H8.07422ZM8.07422 13.4541L8.07422 10.2674H6.57422L6.57422 13.4541H8.07422ZM8.07422 10.2674C8.07422 9.91332 8.35913 9.63185 8.70376 9.63185V8.13185C7.52459 8.13185 6.57422 9.09103 6.57422 10.2674H8.07422ZM8.70376 9.63185L26.7563 9.63184V8.13184L8.70376 8.13185L8.70376 9.63185ZM34.7577 9.63185L37.9504 9.63185V8.13185L34.7577 8.13185V9.63185ZM37.9504 28.707H32.4377V30.207H37.9504V28.707ZM19.8979 28.707H8.70376V30.207H19.8979V28.707ZM7.32422 14.2041L26.7563 14.2041V12.7041L7.32422 12.7041L7.32422 14.2041ZM34.7577 14.2041H39.33V12.7041H34.7577V14.2041ZM39.33 17.2763H34.7577V18.7763H39.33V17.2763ZM10.7534 24.4916H14.2214V22.9916H10.7534V24.4916ZM17.0394 24.4916H18.2952V22.9916H17.0394V24.4916ZM22.9479 21.5118C22.5043 22.0023 21.9942 22.8576 21.8752 23.9367C21.7529 25.0461 22.0523 26.3276 23.1361 27.6031L24.2792 26.6319C23.4511 25.6573 23.291 24.7828 23.3662 24.1011C23.4447 23.3892 23.7888 22.8182 24.0604 22.518L22.9479 21.5118ZM23.1361 27.6031C25.2014 30.034 26.7907 31.6313 31.9231 37.0715L33.0142 36.0422C27.8541 30.5725 26.311 29.0234 24.2792 26.6319L23.1361 27.6031ZM31.9231 37.0715C31.9743 37.1257 32.0316 37.2094 32.0894 37.3228C32.146 37.4336 32.1931 37.5526 32.2322 37.6642L33.6479 37.1684C33.5519 36.8942 33.3617 36.4104 33.0142 36.0422L31.9231 37.0715ZM35.7768 34.1941C35.7279 34.1932 35.6715 34.1771 35.6059 34.1386C35.5386 34.0991 35.4824 34.0478 35.448 34.0109L34.3503 35.0332C34.534 35.2304 35.0247 35.6803 35.7486 35.6938L35.7768 34.1941ZM32.2014 38.741C32.1536 41.2883 34.1799 43.392 36.7272 43.4397L36.7553 41.94C35.0363 41.9078 33.6689 40.4881 33.7011 38.7691L32.2014 38.741ZM36.7272 43.4397C39.2745 43.4875 41.3782 41.4612 41.4259 38.9139L39.9262 38.8858C39.894 40.6048 38.4743 41.9722 36.7553 41.94L36.7272 43.4397ZM41.4259 38.9139C41.4737 36.3666 39.4474 34.2629 36.9001 34.2152L36.872 35.7149C38.591 35.7471 39.9584 37.1668 39.9262 38.8858L41.4259 38.9139ZM32.2322 37.6642C32.2125 37.6081 32.2249 37.6159 32.2306 37.7637C32.235 37.8775 32.234 38.018 32.23 38.1616C32.226 38.3033 32.2193 38.4387 32.2135 38.5393C32.2106 38.5894 32.208 38.6303 32.2061 38.6583C32.2052 38.6724 32.2045 38.6831 32.204 38.6902C32.2037 38.6938 32.2035 38.6964 32.2034 38.698C32.2033 38.6988 32.2033 38.6994 32.2033 38.6997C32.2033 38.6999 32.2033 38.7 32.2033 38.7C32.2033 38.7 32.2033 38.7 32.2033 38.7C32.2033 38.7 32.2033 38.7 32.2033 38.7C32.2033 38.6999 32.2033 38.6999 32.9512 38.755C33.6992 38.8102 33.6992 38.8101 33.6992 38.8101C33.6992 38.8101 33.6992 38.81 33.6992 38.81C33.6992 38.8099 33.6992 38.8098 33.6992 38.8097C33.6993 38.8094 33.6993 38.8092 33.6993 38.8088C33.6994 38.8081 33.6994 38.8071 33.6995 38.8059C33.6997 38.8034 33.6999 38.7999 33.7003 38.7955C33.7009 38.7866 33.7018 38.774 33.7028 38.758C33.705 38.726 33.7078 38.6805 33.711 38.6253C33.7173 38.5154 33.7248 38.3647 33.7294 38.204C33.7339 38.0454 33.7358 37.8674 33.7295 37.7059C33.7246 37.5784 33.7129 37.3541 33.6479 37.1684L32.2322 37.6642ZM35.7486 35.6938L36.872 35.7149L36.9001 34.2152L35.7768 34.1941L35.7486 35.6938ZM35.448 34.0109C30.2502 28.4296 29.2798 27.3222 24.0621 21.5137L22.9462 22.5161C28.1643 28.3251 29.1425 29.4412 34.3503 35.0332L35.448 34.0109ZM37.7038 38.8818C37.693 39.3845 37.2767 39.7833 36.774 39.7725L36.7417 41.2721C38.0727 41.3007 39.1748 40.245 39.2034 38.9141L37.7038 38.8818ZM36.774 39.7725C36.2713 39.7616 35.8725 39.3454 35.8834 38.8427L34.3837 38.8104C34.3551 40.1413 35.4108 41.2435 36.7417 41.2721L36.774 39.7725ZM35.8834 38.8427C35.8942 38.34 36.3104 37.9412 36.8132 37.952L36.8454 36.4524C35.5145 36.4237 34.4123 37.4795 34.3837 38.8104L35.8834 38.8427ZM36.8132 37.952C37.3159 37.9628 37.7146 38.3791 37.7038 38.8818L39.2034 38.9141C39.2321 37.5831 38.1763 36.481 36.8454 36.4524L36.8132 37.952ZM26.7563 17.2763L7.32422 17.2763L7.32422 18.7763L26.7563 18.7763V17.2763Z" fill="#113B5E"/>
<path d="M30.7764 27.1708V4.30957" stroke="#113B5E" stroke-width="1.5" stroke-linecap="round" stroke-dasharray="3 3"/>
<circle cx="31.1433" cy="32.7298" r="0.531901" transform="rotate(-9.58828 31.1433 32.7298)" fill="#113B5E"/>
</svg>
