<svg xmlns="http://www.w3.org/2000/svg" width="48" height="48" fill="none"><path fill="#E4EBEB" d="M12.286 5.005H33s-1.184.876-1.684 1.876H12.102C10.316 6.881 10 8.573 10 9.005v26.5l-2 2.358V9.29c0-2.286 1.5-4.286 4.286-4.286Z"/><path fill="#E4EBEB" d="M39.5 12.005H31c0-2.5 0-7 3.5-7 4.5 0 5 4 5 7Z"/><path stroke="#113B5E" stroke-linecap="round" stroke-linejoin="round" stroke-width="1.5" d="M35.143 5H12.286A4.28 4.28 0 0 0 8 9.286v28.571L10.857 35l2.857 2.857L16.571 35l2.8 2.857L22 35M35.143 5c-1.1 0-2.1.414-2.858 1.1a4.2 4.2 0 0 0-1.428 3.186M35.143 5a4.28 4.28 0 0 1 4.285 4.286v2.857h-8.571V9.286m0 16.285V9.286M13 18.199s0 1.49 2.094 1.49c2.624 0 2.624-3.57 0-4.099-2.623-.53-2.623-4.1 0-4.1 1.633 0 1.633 1.491 1.633 1.491M15.237 10v1.49m0 8.2v1.49M22 14h5m-5 4h5m-15 8h15m-15 4h7"/><path fill="#FF8377" stroke="#113B5E" stroke-width="1.5" d="M31.551 29.77a.964.964 0 0 0-.963.964v3.854h-3.855a.964.964 0 0 0-.963.964v1.927c0 .532.431.964.963.964h3.855v3.854c0 .532.431.964.963.964h1.927a.964.964 0 0 0 .964-.964v-3.854h3.855a.964.964 0 0 0 .963-.964v-1.927a.964.964 0 0 0-.963-.964h-3.855v-3.854a.964.964 0 0 0-.964-.964h-1.927Z"/></svg>