<?xml version="1.0" encoding="UTF-8"?>
<svg width="200px" height="29px" viewBox="0 0 200 29" version="1.1" xmlns="http://www.w3.org/2000/svg" xmlns:xlink="http://www.w3.org/1999/xlink">
    <title>LC - Logo_BLUE_RGB-01 Copy 2</title>
    <g id="Footer" stroke="none" stroke-width="1" fill="none" fill-rule="evenodd">
        <g id="Footer-1280px" transform="translate(-80.000000, -920.000000)" fill-rule="nonzero">
            <g id="Logo/Equal-Housing" transform="translate(80.000000, 872.000000)">
                <g id="LC---Logo_BLUE_RGB-01-Copy-2" transform="translate(0.112236, 48.166750)">
                    <rect id="Rectangle" fill="#EA4224" x="17.8620055" y="0.4259375" width="4.1950322" height="4.1325" rx="0.206071757"></rect>
                    <rect id="Rectangle" fill="#EA4224" x="17.8620055" y="6.2911875" width="4.1950322" height="4.1325" rx="0.206071757"></rect>
                    <rect id="Rectangle" fill="#EA4224" x="17.8620055" y="12.1564375" width="4.1950322" height="4.1325" rx="0.206071757"></rect>
                    <rect id="Rectangle" fill="#EA4224" x="11.9080037" y="0.4259375" width="4.1950322" height="4.1325" rx="0.206071757"></rect>
                    <rect id="Rectangle" fill="#EA4224" x="11.9080037" y="6.2911875" width="4.1950322" height="4.1325" rx="0.206071757"></rect>
                    <rect id="Rectangle" fill="#EA4224" x="11.9080037" y="12.1564375" width="4.1950322" height="4.1325" rx="0.206071757"></rect>
                    <rect id="Rectangle" fill="#EA4224" x="5.95400184" y="0.4259375" width="4.1950322" height="4.1325" rx="0.206071757"></rect>
                    <rect id="Rectangle" fill="#EA4224" x="5.95400184" y="12.1564375" width="4.1950322" height="4.1325" rx="0.206071757"></rect>
                    <rect id="Rectangle" fill="#EA4224" x="0" y="0.4259375" width="4.1950322" height="4.1325" rx="0.206071757"></rect>
                    <rect id="Rectangle" fill="#EA4224" x="0" y="6.2911875" width="4.1950322" height="4.1325" rx="0.206071757"></rect>
                    <rect id="Rectangle" fill="#EA4224" x="0" y="12.1564375" width="4.1950322" height="4.1325" rx="0.206071757"></rect>
                    <rect id="Rectangle" fill="#EA4224" x="17.8620055" y="18.0216875" width="4.1950322" height="4.1325" rx="0.206071757"></rect>
                    <rect id="Rectangle" fill="#EA4224" x="0" y="18.0216875" width="4.1950322" height="4.1325" rx="0.206071757"></rect>
                    <rect id="Rectangle" fill="#EA4224" x="5.95400184" y="18.0216875" width="4.1950322" height="4.1325" rx="0.206071757"></rect>
                    <rect id="Rectangle" fill="#EA4224" x="11.9080037" y="18.0216875" width="4.1950322" height="4.1325" rx="0.206071757"></rect>
                    <path d="M29.976081,0.4259375 L34.0386385,0.4259375 C34.1524487,0.4259375 34.2447102,0.516823696 34.2447102,0.6289375 L34.2447102,18.4784375 L43.9227231,18.4784375 C44.0358187,18.4784331 44.1277851,18.5682197 44.1287948,18.679625 L44.1287948,21.94575 C44.1287948,22.0578638 44.0365334,22.14875 43.9227231,22.14875 L29.976081,22.14875 C29.8629899,22.1477553 29.7718491,22.0571598 29.7718491,21.94575 L29.7718491,0.6289375 C29.7718491,0.517527724 29.8629899,0.42693223 29.976081,0.4259375 Z" id="Path" fill="#113B5E"></path>
                    <path d="M45.0892364,14.2081875 C45.0892364,9.588125 48.2667893,5.8706875 52.8942042,5.8706875 C57.9208832,5.8706875 60.6310948,9.7421875 60.6973403,15.192375 C60.6978223,15.2466953 60.676386,15.2989823 60.6377396,15.3377325 C60.5990932,15.3764827 60.5464026,15.3985214 60.4912603,15.399 L49.2235511,15.399 C49.5308188,17.79875 50.8886845,19.426375 53.2713891,19.426375 C54.8482061,19.426375 55.7939282,18.7466875 56.274149,17.635625 C56.3052043,17.5619431 56.3771922,17.5130119 56.4581417,17.5105625 L60.1950322,17.5105625 C60.2584434,17.5099708 60.3185999,17.5381721 60.3581267,17.5870211 C60.3976534,17.63587 60.4121481,17.6999259 60.3974241,17.7606875 C59.7166513,20.416 57.2474701,22.616375 53.298988,22.616375 C48.049678,22.6109375 45.0892364,18.8645 45.0892364,14.2081875 Z M49.2842686,12.5370625 L56.3183073,12.5370625 C56.1950322,10.5614375 54.8684453,9.0570625 52.9549218,9.0570625 C50.7341306,9.0570625 49.6540938,10.4998125 49.2842686,12.5370625 L49.2842686,12.5370625 Z" id="Shape" fill="#113B5E"></path>
                    <path d="M66.9107636,8.4190625 C67.9908004,6.746125 69.5326587,5.86525 71.6945722,5.86525 C74.9641214,5.86525 77.1554738,8.297625 77.1554738,11.7015 L77.1554738,21.94575 C77.1554738,22.0578638 77.0632123,22.14875 76.949402,22.14875 L73.1628335,22.14875 C73.0490232,22.14875 72.9567617,22.0578638 72.9567617,21.94575 L72.9567617,12.3086875 C72.9567617,10.6375625 71.9705612,9.4521875 70.2115915,9.4521875 C68.3606256,9.4521875 67.0027599,10.9021875 67.0027599,13.0373125 L67.0027599,21.94575 C67.0027599,22.0578638 66.9104984,22.14875 66.7966881,22.14875 L63.0137994,22.14875 C62.9021504,22.1458029 62.8132475,22.0557742 62.8132475,21.94575 L62.8132475,6.4941875 C62.8132475,6.3820737 62.9055089,6.2911875 63.0193192,6.2911875 L66.7102116,6.2911875 C66.7648652,6.2911875 66.8172804,6.31257494 66.8559263,6.35064482 C66.8945723,6.38871471 66.9162833,6.44034855 66.9162833,6.4941875 L66.9107636,8.4190625 Z" id="Path" fill="#113B5E"></path>
                    <path d="M79.2603496,14.239 C79.2603496,9.3760625 82.0680773,5.86525 86.0165593,5.86525 C88.2391904,5.86525 89.7203312,6.869375 90.5832567,8.1761875 L90.5832567,0.6289375 C90.5832567,0.516823696 90.6755181,0.4259375 90.7893284,0.4259375 L94.574057,0.4259375 C94.6862925,0.4259375 94.7782889,0.5165625 94.7782889,0.35525 L94.7782889,21.6793125 C94.7782889,22.065375 94.6862925,22.156 94.574057,22.156 L90.9438822,22.156 C90.830072,22.156 90.7378105,22.0651138 90.7378105,21.953 L90.7378105,20.11875 C89.8178473,21.608625 88.1766329,22.6109375 85.9540018,22.6109375 C81.976081,22.6109375 79.2603496,19.2831875 79.2603496,14.239 Z M90.6678933,14.329625 C90.6678933,11.3516875 89.6816927,9.2093125 86.9972401,9.2093125 C84.6826127,9.2093125 83.5013799,11.3516875 83.5013799,14.239 C83.5013799,17.24775 84.7046918,19.14725 86.8647654,19.14725 C89.3799448,19.14725 90.675253,17.186125 90.675253,14.33325 L90.6678933,14.329625 Z" id="Shape" fill="#113B5E"></path>
                    <path d="M97.7148114,6.2911875 L101.49954,6.2911875 C101.61335,6.2911875 101.705612,6.3820737 101.705612,6.4941875 L101.705612,21.94575 C101.705612,22.0578638 101.61335,22.14875 101.49954,22.14875 L97.7148114,22.14875 C97.6010011,22.14875 97.5087397,22.0578638 97.5087397,21.94575 L97.5087397,6.4941875 C97.5087397,6.3820737 97.6010011,6.2911875 97.7148114,6.2911875 Z" id="Path" fill="#113B5E"></path>
                    <path d="M108.522539,8.4190625 C109.602576,6.746125 111.146274,5.86525 113.306348,5.86525 C116.577737,5.86525 118.767249,8.297625 118.767249,11.7015 L118.767249,21.94575 C118.767249,22.0578638 118.674988,22.14875 118.561178,22.14875 L114.776449,22.14875 C114.662639,22.14875 114.570377,22.0578638 114.570377,21.94575 L114.570377,12.3086875 C114.570377,10.6375625 113.582337,9.4521875 111.825207,9.4521875 C109.972401,9.4521875 108.616375,10.9021875 108.616375,13.0373125 L108.616375,21.94575 C108.616375,22.0578638 108.524114,22.14875 108.410304,22.14875 L104.625575,22.14875 C104.511765,22.14875 104.419503,22.0578638 104.419503,21.94575 L104.419503,6.4941875 C104.419503,6.3820737 104.511765,6.2911875 104.625575,6.2911875 L108.318307,6.2911875 C108.431398,6.29218223 108.522544,6.38277772 108.522539,6.4941875 L108.522539,8.4190625 Z" id="Path" fill="#113B5E"></path>
                    <path d="M138.336707,11.3661875 C138.336707,4.92275 142.408464,0 148.918123,0 C154.25391,0 157.435143,3.08125 157.9908,7.094125 C157.998183,7.15237336 157.97984,7.21094244 157.940426,7.25496851 C157.901013,7.29899457 157.844317,7.32424529 157.784729,7.3243125 L153.736891,7.3243125 C153.639251,7.32360945 153.555516,7.25550071 153.536339,7.1611875 C153.083717,5.0659375 151.436983,3.7174375 148.910764,3.7174375 C144.837167,3.7174375 142.894204,7.0596875 142.894204,11.37525 C142.894204,15.81225 145.23827,19.0040625 148.942042,19.0040625 C151.49586,19.0040625 153.319227,17.5323125 153.668813,15.34825 C153.679105,15.2463629 153.765435,15.1683417 153.869365,15.167 L157.849126,15.167 C157.907122,15.1667718 157.962531,15.1906288 158.001753,15.2327153 C158.040974,15.2748018 158.060377,15.3312212 158.055198,15.388125 C157.886874,17.2631881 157.025963,19.0122286 155.635695,20.303625 C154.123275,21.7010625 151.99632,22.61275 148.942042,22.61275 C142.74701,22.6109375 138.336707,17.90025 138.336707,11.3661875 Z" id="Path" fill="#113B5E"></path>
                    <path d="M160.601656,0.4259375 L164.377185,0.4259375 C164.490995,0.4259375 164.583257,0.516823696 164.583257,0.6289375 L164.583257,21.94575 C164.583257,22.0578638 164.490995,22.14875 164.377185,22.14875 L160.601656,22.14875 C160.487846,22.14875 160.395584,22.0578638 160.395584,21.94575 L160.395584,0.6289375 C160.395584,0.516823696 160.487846,0.4259375 160.601656,0.4259375 Z" id="Path" fill="#113B5E"></path>
                    <path d="M177.646734,22.156 C177.590781,22.1560352 177.537219,22.1336554 177.498354,22.0940027 C177.45949,22.0543501 177.438664,22.0008338 177.440662,21.94575 L177.440662,20.332625 C176.360626,21.760875 175.034039,22.580125 172.813247,22.580125 C169.295308,22.580125 167.321067,20.361625 167.321067,16.961375 L167.321067,6.4941875 C167.321067,6.3820737 167.413329,6.2911875 167.527139,6.2911875 L171.280589,6.2911875 C171.394399,6.2911875 171.486661,6.3820737 171.486661,6.4941875 L171.486661,16.2599375 C171.486661,18.0833125 172.320147,19.085625 174.108556,19.085625 C176.082797,19.085625 177.286109,17.635625 177.286109,15.5603125 L177.286109,6.4978125 C177.286109,6.3856987 177.37837,6.2948125 177.49218,6.2948125 L181.276909,6.2948125 C181.33188,6.29335319 181.385163,6.31359811 181.424902,6.35104253 C181.464641,6.38848695 181.487538,6.4400245 181.4885,6.4941875 L181.4885,21.94575 C181.4885,22.0578638 181.396239,22.14875 181.282429,22.14875 L177.646734,22.156 Z" id="Path" fill="#113B5E"></path>
                    <path d="M188.25391,20.209375 L188.25391,21.94575 C188.25391,22.0578638 188.161648,22.14875 188.047838,22.14875 L184.417663,22.14875 C184.305428,22.14875 184.213431,22.058125 184.213431,21.6720625 L184.213431,0.35525 C184.213431,0.5165625 184.305428,0.4259375 184.417663,0.4259375 L188.202392,0.4259375 C188.316202,0.4259375 188.408464,0.516823696 188.408464,0.6289375 L188.408464,8.17075 C189.273229,6.8639375 190.723091,5.8598125 192.912603,5.8598125 C196.892364,5.8598125 199.731371,9.370625 199.731371,14.2335625 C199.731371,19.27775 197.015639,22.6055234 193.035879,22.6055234 C190.815087,22.6109375 189.179393,21.6684375 188.25391,20.209375 Z M195.471941,14.239 C195.471941,11.3516875 194.299908,9.2093125 191.954002,9.2093125 C189.300828,9.2093125 188.314627,11.4423125 188.314627,14.329625 C188.314627,17.186125 189.764489,19.14725 192.108556,19.14725 C194.270469,19.14725 195.471941,17.24775 195.471941,14.239 Z" id="Shape" fill="#113B5E"></path>
                    <rect id="Rectangle" fill="#EA4224" x="97.5087397" y="0.4259375" width="4.1950322" height="4.1325" rx="0.206071757"></rect>
                    <path d="M136.022079,6.2911875 L132.391904,6.2911875 C132.335987,6.28921895 132.281661,6.30973416 132.241408,6.3480195 C132.201156,6.38630483 132.178437,6.43906854 132.178473,6.4941875 L132.178473,8.2668125 C131.25851,6.80775 129.619135,5.86525 127.394664,5.86525 C123.414903,5.86525 120.864765,9.435875 120.864765,14.2371875 C120.864765,18.933375 123.538178,22.156 127.517939,22.156 C129.709292,22.156 131.162833,21.1681875 132.084637,19.7471875 L132.084637,22.30825 C132.084637,24.436125 130.943882,25.559875 128.566697,25.559875 C126.712052,25.559875 125.806808,24.7061875 125.438822,23.7963125 C125.409884,23.7201926 125.33729,23.6687046 125.25483,23.6658125 L121.477461,23.6658125 C121.416494,23.6654781 121.358506,23.6917552 121.319092,23.7375771 C121.279678,23.783399 121.262885,23.8440614 121.273229,23.90325 C121.806808,26.80325 124.432383,28.691875 128.632935,28.691875 C130.977001,28.691875 133.013799,28.148125 134.336707,26.9283125 C135.50874,25.864375 136.218951,24.3763125 136.218951,22.1868125 L136.218951,6.4941875 C136.218951,6.38551954 136.132282,6.2960387 136.022079,6.2911875 Z M128.478381,18.6905 C126.24839,18.6905 125.133395,16.751125 125.133395,14.0051875 C125.133395,11.14325 126.277829,9.2093125 128.331187,9.2093125 C130.561178,9.2093125 131.941122,11.2030625 131.941122,13.9218125 C131.939282,16.664125 131.00092,18.68325 128.476541,18.68325 L128.478381,18.6905 Z" id="Shape" fill="#113B5E"></path>
                </g>
            </g>
        </g>
    </g>
</svg>