<?xml version="1.0" encoding="UTF-8"?>
<svg width="120px" height="26px" viewBox="0 0 120 26" version="1.1" xmlns="http://www.w3.org/2000/svg" xmlns:xlink="http://www.w3.org/1999/xlink">
    <title>Equal Housing@2x</title>
    <defs>
        <polygon id="path-1" points="0 25.8122567 119.694268 25.8122567 119.694268 0 0 0"></polygon>
    </defs>
    <g id="Footer" stroke="none" stroke-width="1" fill="none" fill-rule="evenodd">
        <g id="Footer-1280px" transform="translate(-744.000000, -946.000000)">
            <g id="Logo/Equal-Housing" transform="translate(80.000000, 872.000000)">
                <g id="Equal-Housing" transform="translate(664.000000, 74.000000)">
                    <path d="M16.936051,0.000314438503 L0,9.91298824 L0,13.4952289 L2.59490446,13.4952289 L2.59490446,25.8125711 L30.8522293,25.8125711 L30.8522293,13.4952289 L33.493758,13.4952289 L33.493758,10.0112503 L16.936051,0.000314438503 Z M6.03745223,10.3091807 L16.9345223,3.73269947 L27.5961783,10.3091807 L27.5961783,22.6744749 L6.03745223,22.6744749 L6.03745223,10.3091807 Z" id="Fill-1" fill="#113B5E"></path>
                    <polygon id="Fill-2" fill="#113B5E" points="11.1385987 15.0175829 22.4132484 15.0175829 22.4132484 11.9753904 11.1385987 11.9753904"></polygon>
                    <polygon id="Fill-3" fill="#113B5E" points="11.1385987 19.5494278 22.4132484 19.5494278 22.4132484 16.5064492 11.1385987 16.5064492"></polygon>
                    <g id="Group-50" transform="translate(0.000000, 0.000000)">
                        <path d="M80.4056561,25.8119422 L80.4056561,15.3694396 L85.7429809,15.3694396 C89.555465,15.3694396 92.2237452,16.5595893 92.2237452,20.7895733 C92.2237452,24.886707 89.8092229,25.8119422 85.6153376,25.8119422 L80.4056561,25.8119422 Z" id="Fill-4" fill="#113B5E"></path>
                        <path d="M83.1995159,17.6128011 L83.1995159,23.5611914 L85.4863949,23.5611914 C87.6471592,23.5611914 89.1712357,23.1642128 89.1712357,20.7846995 C89.1712357,18.6701005 87.5195159,17.6128011 85.7409172,17.6128011 L83.1995159,17.6128011 Z" id="Fill-6" fill="#FEFEFE"></path>
                        <path d="M108.258191,25.8119422 L108.258191,15.3694396 L115.628637,15.3694396 C118.423796,15.3694396 119.567236,16.295461 119.567236,18.6741882 C119.567236,20.3925947 118.677554,21.1857658 116.772076,21.4506802 L119.694115,25.8119422 L116.644433,25.8119422 L113.721631,21.4506802 L111.05335,21.4506802 L111.05335,25.8119422 L108.258191,25.8119422 Z" id="Fill-8" fill="#113B5E"></path>
                        <path d="M115.233478,17.628523 L111.040357,17.628523 L111.040357,19.2148652 L115.106599,19.2148652 C116.504561,19.2148652 116.885962,19.2148652 116.885962,18.420908 C116.885962,17.7605872 116.377682,17.628523 115.233478,17.628523" id="Fill-10" fill="#FEFEFE"></path>
                        <polygon id="Fill-12" fill="#113B5E" points="65.0854777 15.3696754 65.0854777 25.8121781 67.753758 25.8121781 67.753758 19.4675952 73.0910828 25.8121781 76.2676433 25.8121781 76.2676433 15.3696754 73.5993631 15.3696754 73.5993631 21.8463225 68.2620382 15.3696754"></polygon>
                        <polygon id="Fill-14" fill="#113B5E" points="38.8869554 15.3696754 38.8869554 25.8121781 48.9256815 25.8121781 48.9256815 23.5647289 41.682879 23.4326647 41.682879 15.3696754"></polygon>
                        <polygon id="Fill-16" fill="#113B5E" points="51.799949 25.8119422 61.5849172 25.8119422 61.5849172 23.5652791 54.7227516 23.5652791 54.7227516 21.318616 60.4414777 21.318616 60.4414777 19.203231 54.7227516 19.203231 54.7227516 17.6168888 61.5849172 17.6168888 61.5849172 15.3694396 51.799949 15.3694396"></polygon>
                        <polygon id="Fill-18" fill="#113B5E" points="95.3511592 15.3696754 95.3511592 25.8121781 105.008484 25.6801139 105.008484 23.5647289 98.1463185 23.5647289 98.1463185 21.3180658 103.992688 21.3180658 103.992688 19.2034668 98.1463185 19.2034668 98.1463185 17.6171246 105.008484 17.6171246 105.008484 15.3696754"></polygon>
                        <polygon id="Fill-20" fill="#113B5E" points="58.8024459 12.7991406 61.3446115 3.41472353 63.5046115 3.41472353 66.0460127 12.7991406 64.0663949 12.7991406 63.5046115 10.6845417 61.2169682 10.6845417 60.6544204 12.7991406"></polygon>
                        <polygon id="Fill-22" fill="#FEFEFE" points="62.3707261 5.42217754 61.6086879 9.12311872 63.2604076 9.12311872"></polygon>
                        <path d="M44.6343439,9.36492193 L44.6343439,6.85334439 C44.6343439,4.47383102 45.3971465,3.15240321 47.6840255,3.15240321 C50.2254268,3.15240321 50.733707,4.73874545 50.733707,6.98540856 L50.733707,8.96872941 C50.733707,10.158093 50.606828,10.6871358 50.2254268,11.4795209 L51.7502675,12.0085636 L51.6233885,12.6696706 C46.413707,12.6696706 44.6343439,12.5376064 44.6343439,9.36492193" id="Fill-24" fill="#113B5E"></path>
                        <path d="M46.5328662,6.98281444 L46.5328662,9.22947754 C46.5328662,10.947884 46.7873885,11.4769267 47.6763057,11.4769267 C48.6928662,11.4769267 48.8205096,11.0799481 48.8205096,9.36154171 L48.8205096,6.85075027 C48.8205096,5.00027968 48.6928662,4.73615134 47.803949,4.73615134 C46.6597452,4.73615134 46.5328662,5.26440802 46.5328662,6.98281444" id="Fill-26" fill="#FEFEFE"></path>
                        <path d="M96.4819873,10.2869342 C96.4819873,11.7412123 97.3709045,12.9305759 99.4040255,12.9305759 C101.055745,12.9305759 102.580586,11.7412123 102.580586,10.2869342 C102.580586,8.04027112 98.5151083,6.98218556 98.5151083,5.52869358 C98.5151083,4.9996508 99.0233885,4.73552246 99.5309045,4.73552246 C100.293707,4.73552246 100.674344,5.26456524 101.055745,6.05695027 L102.326828,5.52869358 C102.199185,4.20726578 101.310268,3.14918021 99.4040255,3.14918021 C97.8791847,3.14918021 96.6088662,3.94235134 96.6088662,5.52869358 C96.6088662,8.17233529 100.674344,8.83265615 100.674344,10.5510626 C100.674344,11.2121695 100.293707,11.477084 99.5309045,11.477084 C98.7688662,11.477084 98.260586,10.9480412 98.006828,10.0228059 L96.4819873,10.2869342 Z" id="Fill-28" fill="#113B5E"></path>
                        <path d="M82.7046115,9.7583631 L82.7046115,6.71774278 C82.7046115,4.20695134 83.8488153,3.14886578 85.754293,3.14886578 C88.1688153,3.14886578 88.8039745,4.07488717 88.8039745,6.45361444 L88.8039745,9.36217059 C88.8039745,11.872962 88.1688153,12.9310476 85.754293,12.9310476 C83.340535,12.9310476 82.7046115,12.0050262 82.7046115,9.7583631" id="Fill-30" fill="#113B5E"></path>
                        <path d="M84.6057325,6.58670053 L84.6057325,9.49447059 C84.6057325,10.8158984 84.7333758,11.4770053 85.749172,11.4770053 C86.5119745,11.4770053 86.8933758,10.9487487 86.8933758,9.36240642 L86.8933758,6.58670053 C86.8933758,5.52940107 86.7657325,4.60416578 85.749172,4.60416578 C84.7333758,4.60416578 84.6057325,5.3965508 84.6057325,6.58670053" id="Fill-32" fill="#FEFEFE"></path>
                        <path d="M113.469707,9.36185615 C113.469707,12.137562 114.231745,12.9307332 116.773146,12.9307332 C118.740535,12.9307332 119.314548,11.9709096 119.314548,10.9481984 L119.314548,7.90757807 L116.646268,7.90757807 L116.646268,9.36185615 L117.535185,9.36185615 L117.535185,10.4191556 C117.535185,11.2123267 117.281427,11.6085193 116.646268,11.6085193 C115.375185,11.6085193 115.248306,10.6840701 115.248306,9.36185615 L115.248306,7.24725722 C115.248306,5.66091497 115.375185,4.60282941 116.646268,4.60282941 C117.535185,4.60282941 118.043465,5.26472246 118.171108,6.18917166 L119.441427,5.66091497 C119.314548,4.07457273 118.297987,3.14933743 116.518624,3.14933743 C113.977987,3.14933743 113.469707,4.60282941 113.469707,6.58615027 L113.469707,9.36185615 Z" id="Fill-34" fill="#113B5E"></path>
                        <path d="M89.5984968,3.41236524 L89.5984968,8.83171283 C89.5984968,12.0043973 90.1220637,13.0184615 92.7903439,13.0184615 C94.823465,13.0184615 95.5709809,11.8723332 95.5709809,9.09584118 L95.5709809,3.41236524 L93.7916178,3.41236524 L93.7916178,8.83171283 C93.7916178,10.9463118 93.6647389,11.4753545 92.6481783,11.4753545 C91.6316178,11.4753545 91.5047389,10.6821834 91.5047389,8.69964866 L91.5047389,3.41236524 L89.5984968,3.41236524 Z" id="Fill-36" fill="#113B5E"></path>
                        <polygon id="Fill-38" fill="#113B5E" points="106.575057 3.41433048 106.575057 12.7987476 108.099898 12.7987476 108.099898 6.45416471 110.259898 12.7987476 112.546777 12.7987476 112.546777 3.41433048 111.022701 3.41433048 111.022701 9.22987059 108.98958 3.41433048"></polygon>
                        <path d="M52.5612994,3.41275829 L52.5612994,9.09623422 C52.5612994,11.7398759 52.8158217,12.9292396 55.3564586,12.9292396 C58.2792611,12.9292396 58.4061401,11.4757476 58.4061401,8.83210588 L58.4061401,3.41275829 L56.6275414,3.41275829 L56.6275414,8.96417005 C56.6275414,10.8154267 56.3730191,11.3436834 55.4841019,11.3436834 C54.4675414,11.3436834 54.3406624,10.8154267 54.3406624,8.70004171 L54.3406624,3.41275829 L52.5612994,3.41275829 Z" id="Fill-40" fill="#113B5E"></path>
                        <polygon id="Fill-42" fill="#113B5E" points="75.6718471 3.41433048 75.6718471 12.7987476 77.4504459 12.7987476 77.4504459 8.56954973 79.6104459 8.56954973 79.6104459 12.7987476 81.3898089 12.7987476 81.3898089 3.41433048 79.6104459 3.41433048 79.6104459 6.98320749 77.4504459 6.98320749 77.4504459 3.41433048"></polygon>
                        <polygon id="Fill-44" fill="#113B5E" points="38.7581656 3.41433048 38.7581656 12.7987476 43.3326879 12.7987476 43.3326879 11.3452556 40.5375287 11.3452556 40.5375287 8.7016139 43.0789299 8.7016139 43.0789299 7.3794 40.5375287 7.3794 40.5375287 4.86860856 43.3326879 4.86860856 43.3326879 3.41433048"></polygon>
                        <polygon id="Fill-46" fill="#113B5E" points="66.8522293 3.41433048 66.8522293 12.7987476 71.044586 12.7987476 71.044586 11.3452556 68.3763057 11.3452556 68.3763057 3.41433048"></polygon>
                        <mask id="mask-2" fill="white">
                            <use xlink:href="#path-1"></use>
                        </mask>
                        <g id="Clip-49"></g>
                        <polygon id="Fill-48" fill="#113B5E" mask="url(#mask-2)" points="103.514904 12.7992193 105.166624 12.7992193 105.166624 3.41480214 103.514904 3.41480214"></polygon>
                    </g>
                </g>
            </g>
        </g>
    </g>
</svg>