<svg xmlns="http://www.w3.org/2000/svg" width="49" height="48" fill="none"><path fill="#FF8377" d="M9.554 31.026C7.625 32.332 6.5 33.762 6.5 35c0 3.314 8.059 5 18 5s18-1.686 18-5c0-1.235-1.12-2.66-3.038-3.963-.648.597-1.972.627-2.462.463v4.352h-4.5V31.5h-16v4.352H12V31.5c-.489 0-1.647-.095-2.446-.474Z"/><path stroke="#113B5E" stroke-width="1.5" d="M9.554 31.026C7.625 32.332 6.5 33.762 6.5 35c0 3.314 8.059 5 18 5s18-1.686 18-5c0-1.235-1.12-2.66-3.038-3.963"/><path fill="#E4EBEB" d="M14.5 12.5c-.4 2-1.833 5.333-2.5 6.5 7.172-1.956 14.933-4.144 22-6.5-1-1-2-1.333-3-1.5H20.5c-3.6 0-5.5.5-6 1.5Z"/><path fill="#113B5E" d="M19.285 26.47a.75.75 0 0 0 0 1.5v-1.5Zm10.312 1.5a.75.75 0 1 0 0-1.5v1.5Zm-13.258 0a.75.75 0 1 0 0-1.5v1.5Zm-3.67-2.224a.75.75 0 0 0-1.5 0h1.5Zm19.874.723a.75.75 0 0 0 0 1.5v-1.5Zm5.17-.723a.75.75 0 1 0-1.5 0h1.5Zm2.196-1.267h-.75c0 .414.336.75.75.75v-.75Zm-1.002-2.799.587-.467-.005-.006-.582.473Zm-3.962-8.19.74-.12-.002-.01-.738.13Zm-20.993 0-.74-.125a.73.73 0 0 0-.006.05l.746.075Zm-3.977 8.205-.584-.471-.003.004.587.467Zm29.963 2.784h.75a.75.75 0 0 0-.75-.75v.75ZM36.213 32v2.585h1.5V32h-1.5Zm0 2.585a.727.727 0 0 1-.723.723v1.5a2.227 2.227 0 0 0 2.223-2.223h-1.5Zm-.723.723h-1.474v1.5h1.474v-1.5Zm-1.474 0a.728.728 0 0 1-.723-.723h-1.5c0 1.224.999 2.223 2.224 2.223v-1.5Zm-.723-.723V32h-1.5v2.585h1.5ZM11.17 32v2.585h1.5V32h-1.5Zm0 2.585c0 1.224 1 2.223 2.224 2.223v-1.5a.728.728 0 0 1-.724-.723h-1.5Zm2.224 2.223h1.473v-1.5h-1.473v1.5Zm1.473 0a2.227 2.227 0 0 0 2.223-2.223h-1.5a.727.727 0 0 1-.723.723v1.5Zm2.223-2.223V32h-1.5v2.585h1.5Zm2.196-6.616h10.312v-1.5H19.285v1.5Zm-2.946-1.5h-3.182v1.5h3.182v-1.5Zm-3.182 0c-.036 0-.149-.026-.285-.198a.914.914 0 0 1-.203-.525h-1.5c0 .53.211 1.058.527 1.457.313.395.819.766 1.46.766v-1.5Zm19.386 1.5h3.182v-1.5h-3.182v1.5Zm3.182 0c.642 0 1.148-.371 1.461-.767.316-.398.527-.927.527-1.456h-1.5a.914.914 0 0 1-.203.525c-.136.172-.25.198-.285.198v1.5Zm1.16-9.495c-8.315.864-17.586.79-24.885 0l-.161 1.492c7.403.8 16.781.875 25.201 0l-.155-1.492Zm-25.702.63h-2.21v1.5h2.21v-1.5Zm-2.21 0a.914.914 0 0 1-.525-.203c-.172-.136-.198-.25-.198-.285h-1.5c0 .642.371 1.148.767 1.46.398.317.927.528 1.456.528v-1.5Zm-.723-.488c0-.219 0-.386.018-.535a.707.707 0 0 1 .067-.262c.014-.025.034-.051.098-.08.079-.037.24-.082.54-.082v-1.5c-.884 0-1.571.272-1.94.918-.303.53-.283 1.18-.283 1.541h1.5Zm.723-.959h3.683v-1.5H8.973v1.5ZM37.7 20.604h2.328v-1.5h-2.328v1.5Zm2.328 0c.529 0 1.058-.211 1.456-.527.396-.313.767-.819.767-1.46h-1.5c0 .034-.026.148-.198.284a.914.914 0 0 1-.525.203v1.5Zm2.223-1.988c0-.36.02-1.011-.283-1.541-.369-.646-1.056-.918-1.94-.918v1.5c.3 0 .461.046.54.081.064.03.084.056.098.08.022.04.05.117.067.263.017.149.018.316.018.535h1.5Zm-2.223-2.459h-3.8v1.5h3.8v-1.5Zm.632 8.322a5.235 5.235 0 0 0-1.165-3.266l-1.173.934c.535.673.838 1.484.838 2.332h1.5Zm-1.17-3.272c-1.568-1.928-3.289-4.62-3.804-7.836l-1.481.237c.575 3.59 2.478 6.525 4.121 8.546l1.164-.947Zm-3.806-7.846c-.268-1.541-1.451-2.314-2.692-2.69-1.227-.373-2.686-.421-3.88-.421v1.5c1.192 0 2.451.055 3.445.356.98.298 1.52.77 1.65 1.512l1.477-.257Zm-6.572-3.111h-9.325v1.5h9.325v-1.5Zm-9.325 0c-1.194 0-2.657.048-3.886.42-1.24.377-2.428 1.15-2.687 2.695l1.479.249c.124-.739.66-1.21 1.643-1.508.996-.301 2.259-.356 3.451-.356v-1.5Zm-6.58 3.164c-.126 1.249-.671 2.705-1.41 4.125a23.038 23.038 0 0 1-2.405 3.685l1.167.942a24.54 24.54 0 0 0 2.568-3.934c.778-1.494 1.419-3.146 1.573-4.667l-1.493-.15Zm-3.818 7.814a5.211 5.211 0 0 0-1.15 3.251h1.5c0-.84.292-1.649.824-2.317l-1.174-.934Zm-1.15 3.251v5.583h1.5V24.48h-1.5Zm0 5.583c0 .442.192.812.42 1.09.226.276.52.499.815.672.579.338 1.308.565 1.916.565v-1.5c-.29 0-.761-.128-1.159-.36a1.562 1.562 0 0 1-.414-.33.456.456 0 0 1-.077-.131l-.001-.005h-1.5Zm3.151 2.327h26.148v-1.5H11.39v1.5Zm26.148 0c.608 0 1.338-.227 1.917-.565.295-.173.588-.396.815-.673.228-.277.42-.647.42-1.089h-1.5v.002l-.001.004a.456.456 0 0 1-.078.132c-.082.1-.221.216-.414.329-.397.232-.868.36-1.159.36v1.5Zm3.151-2.327V24.48h-1.5v5.583h1.5Zm-.75-6.333h-.029v1.5h.03v-1.5Z"/></svg>