<?xml version="1.0" encoding="UTF-8"?>
<svg xmlns="http://www.w3.org/2000/svg" xmlns:xlink="http://www.w3.org/1999/xlink" width="24px" height="24px" viewBox="0 0 24 23" version="1.1">
    <g id="surface1">
     <path style=" stroke:none;fill-rule:nonzero;fill:#b6bec4;fill-opacity:1;" d="M 11.980469 0 C 5.359375 0 0.0078125 5.148438 0.0078125 11.496094 C 0.0078125 16.367188 3.160156 20.53125 7.613281 22.207031 C 7.507812 21.296875 7.417969 19.898438 7.652344 18.902344 C 7.871094 18.003906 9.054688 13.1875 9.054688 13.1875 C 9.054688 13.1875 8.699219 12.5 8.699219 11.484375 C 8.699219 9.886719 9.664062 8.695312 10.867188 8.695312 C 11.890625 8.695312 12.382812 9.433594 12.382812 10.3125 C 12.382812 11.296875 11.734375 12.773438 11.386719 14.144531 C 11.101562 15.289062 11.988281 16.226562 13.160156 16.226562 C 15.289062 16.226562 16.925781 14.070312 16.925781 10.964844 C 16.925781 8.210938 14.867188 6.292969 11.921875 6.292969 C 8.511719 6.292969 6.511719 8.742188 6.511719 11.277344 C 6.511719 12.261719 6.90625 13.320312 7.398438 13.898438 C 7.496094 14.011719 7.507812 14.117188 7.476562 14.230469 C 7.386719 14.589844 7.179688 15.375 7.140625 15.535156 C 7.09375 15.742188 6.964844 15.789062 6.738281 15.6875 C 5.261719 15.003906 4.332031 12.90625 4.332031 11.222656 C 4.332031 7.597656 7.074219 4.265625 12.246094 4.265625 C 16.394531 4.265625 19.625 7.105469 19.625 10.910156 C 19.625 14.871094 17.023438 18.0625 13.417969 18.0625 C 12.207031 18.0625 11.0625 17.457031 10.679688 16.738281 C 10.679688 16.738281 10.078125 18.933594 9.929688 19.472656 C 9.664062 20.472656 8.933594 21.722656 8.441406 22.488281 C 9.566406 22.820312 10.746094 23 11.988281 23 C 18.601562 23 23.960938 17.851562 23.960938 11.503906 C 23.949219 5.148438 18.589844 0 11.980469 0 Z M 11.980469 0 "/>
    </g>
</svg>
