<svg xmlns="http://www.w3.org/2000/svg" width="49" height="48" fill="none"><path fill="#E4EBEB" d="M6.5 32.325v-10.66l11.016 11.118L26.9 26.35v10.584l-9.385 5.838L6.5 32.325ZM42.5 26.324v-9.831l-9.01 6.262v9.989l9.01-6.42Z"/><path fill="#fff" d="M32.305 5.706c-.764-.757-2.039-.504-2.676 0L7.963 20.456c-1.154.857-.892 1.892-.255 2.648l8.667 8.952c.962.928 1.587 1.012 2.93 0l21.922-14.751c.764-.63.733-1.387 0-2.27l-8.922-9.33Z"/><path fill="#113B5E" d="M19.61 23.307c-.075.763-.9 1.307-1.842 1.216-.942-.09-1.645-.782-1.57-1.545.075-.762.9-1.306 1.842-1.216.943.091 1.646.783 1.57 1.545ZM32.555 14.984c-.075.762-.9 1.307-1.842 1.216-.943-.09-1.646-.783-1.57-1.545.074-.762.9-1.306 1.842-1.216.942.091 1.645.783 1.57 1.545Z"/><path stroke="#113B5E" stroke-linecap="round" stroke-linejoin="round" stroke-width="1.5" d="m6.894 32.458 8.768 9.205c1.206 1.164 1.99 1.269 3.674 0l7.75-5.24m14.773-9.988-8.483 5.735M7.17 29.618l8.578 8.768c1.206 1.164 1.99 1.27 3.673 0l7.664-5.159m14.773-9.94-8.532 5.74M7.17 26.454l8.578 8.848c1.206 1.164 1.99 1.269 3.673 0l7.664-5.153m14.773-9.933-8.483 5.694m-15.892-8.605-5.188 3.53c.51.63.382 1.765-.255 2.27l4.97 5.042c.51-.63 2.295-.504 2.55.252l5.735-3.782m-1.494-11.303c2.196-1.438 5.444-3.572 5.444-3.572.51.755 1.785.88 2.66.25l4.681 5.043c-.764.707-.713 1.64-.204 2.27l-5.082 3.444m-4.215 5.921-7.78 5.386c-1.344 1.012-1.97.928-2.931 0l-8.667-8.952c-.637-.756-.765-2.017.255-2.647l8.154-5.472m17.21 7.789 7.9-5.47c.764-.63.733-1.386 0-2.269l-8.922-9.33c-.764-.756-2.039-.503-2.676 0 0 0-4.767 3.324-7.77 5.368"/><path fill="#FF8377" d="m21.485 11.318 11.568 11.526v9.538l-5.622 3.803v-9.571L16.021 15.04l5.464-3.723Z"/><path fill="#113B5E" d="m21.485 11.318.53-.531-.44-.438-.512.35.422.62Zm11.568 11.526h.75c0-.2-.08-.39-.22-.532l-.53.532Zm0 9.538.42.621.33-.223v-.398h-.75Zm-17.031-17.34-.423-.62-.743.505.631.64.534-.526Zm11.41 21.143h-.75v1.413l1.17-.792-.42-.62ZM20.955 11.85l11.568 11.526 1.059-1.063-11.569-11.525-1.058 1.062Zm11.347 10.995v9.538h1.5v-9.538h-1.5Zm-16.816-7.276 11.41 11.572 1.068-1.053-11.41-11.572-1.068 1.053Zm11.194 11.046v9.571h1.5v-9.571h-1.5Zm5.954-4.393-5.621 3.77.835 1.245 5.622-3.77-.835-1.245ZM21.064 10.698l-5.464 3.723.845 1.24 5.463-3.723-.844-1.24Zm11.57 21.063-5.622 3.803.84 1.242 5.622-3.803-.84-1.242Z"/></svg>